<?xml version="1.0" standalone="no"?>
<!DOCTYPE svg PUBLIC "-//W3C//DTD SVG 1.1//EN" "http://www.w3.org/Graphics/SVG/1.1/DTD/svg11.dtd" >
<svg xmlns="http://www.w3.org/2000/svg" xmlns:xlink="http://www.w3.org/1999/xlink" version="1.1">
<metadata>
Created by FontForge 20190801 at Wed Jan 17 12:06:16 2018
 By Unknown
Copyright (c) 2018, Heaven Castro Studios.
</metadata>
<defs>
<font id="BlobSpongey" horiz-adv-x="270" >
  <font-face 
    font-family="Blob Spongey"
    font-weight="400"
    font-stretch="normal"
    units-per-em="1024"
    panose-1="2 0 5 3 0 0 0 0 0 0"
    ascent="819"
    descent="-205"
    x-height="520"
    cap-height="765"
    bbox="6 -144 982 869"
    underline-thickness="51"
    underline-position="-153"
    unicode-range="U+0020-2026"
  />
<missing-glyph horiz-adv-x="772" 
d="M179 -17l139 -24l26 128l-145 19zM186 479q7 4 25 16.5t24.5 16.5t22 12t24.5 9.5t25 4t30 -1t33 -9.5t40 -16q37 -18 54.5 -43t16 -45.5t-14.5 -37.5q-18 -24 -59.5 -26.5t-102.5 8.5t-74 12l-15 -218l130 -27l13 139q40 -6 90 -4t80 12q62 21 98.5 61t42.5 86.5
t-7.5 95t-49.5 90.5t-86 67q-74 38 -219 47q-137 8 -206 -170zM105 869h501q49 0 77.5 -25.5t32.5 -50.5l4 -25l-4 -826q-2 -1 0 -9t-4 -21t-14.5 -25.5t-30.5 -21.5t-53 -9h-500q-40 0 -60.5 21.5t-21.5 42.5l-1 22l1 823q-5 40 16.5 72t56.5 32z" />
    <glyph glyph-name=".notdef" horiz-adv-x="772" 
d="M179 -17l139 -24l26 128l-145 19zM186 479q7 4 25 16.5t24.5 16.5t22 12t24.5 9.5t25 4t30 -1t33 -9.5t40 -16q37 -18 54.5 -43t16 -45.5t-14.5 -37.5q-18 -24 -59.5 -26.5t-102.5 8.5t-74 12l-15 -218l130 -27l13 139q40 -6 90 -4t80 12q62 21 98.5 61t42.5 86.5
t-7.5 95t-49.5 90.5t-86 67q-74 38 -219 47q-137 8 -206 -170zM105 869h501q49 0 77.5 -25.5t32.5 -50.5l4 -25l-4 -826q-2 -1 0 -9t-4 -21t-14.5 -25.5t-30.5 -21.5t-53 -9h-500q-40 0 -60.5 21.5t-21.5 42.5l-1 22l1 823q-5 40 16.5 72t56.5 32z" />
    <glyph glyph-name=".null" horiz-adv-x="0" 
 />
    <glyph glyph-name="nonmarkingreturn" horiz-adv-x="341" 
 />
    <glyph glyph-name="space" unicode=" " horiz-adv-x="424" 
 />
    <glyph glyph-name="exclam" unicode="!" horiz-adv-x="397" 
d="M98 147l111 108l120 -68l-22 -141l-123 -28zM144 323l-95 423l301 -3l-83 -420h-123z" />
    <glyph glyph-name="quotedbl" unicode="&#x22;" horiz-adv-x="489" 
d="M316 473l3 129l-58 9l3 172l185 -6l-71 -319zM95 476l3 129l-58 9l3 172l184 -6l-70 -319z" />
    <glyph glyph-name="numbersign" unicode="#" horiz-adv-x="808" 
d="M443 374l-148 -6l-2 -98l148 8zM619 378l-3 -94l130 5l4 -163h-139l-3 -89l-172 -37l2 127l-147 1l-2 -110l-175 -18l3 129h-74l-12 132l89 3l3 100l-80 -2l-12 212l97 2l4 146l169 -3l-2 -146l147 -3l3 149l181 3l-5 -155l134 -2l-3 -184z" />
    <glyph glyph-name="dollar" unicode="$" horiz-adv-x="475" 
d="M36 66v164l152 -7q45 4 62 37q14 28 9.5 48t-24.5 26q-58 18 -93 35q-46 23 -73 50q-39 40 -39 103.5t38 95.5q46 41 110 53v79h138v-73q23 -1 67 -4.5t61 -4.5l-18 -155q-19 1 -77.5 9.5t-88 6.5t-41.5 -21q-3 -10 -5.5 -17t5 -14.5l12.5 -12.5t17.5 -10.5t19 -8.5
t17.5 -7t14 -5q61 -25 78 -36q52 -33 56.5 -107.5t-28.5 -133.5q-32 -65 -89 -77v-79h-138v72z" />
    <glyph glyph-name="percent" unicode="%" horiz-adv-x="754" 
d="M80 6l393 734h172l-408 -740zM624 127q9 30 1 44.5t-39 39.5q-14 12 -31.5 -2.5t-23.5 -35.5q-10 -40 25 -71q14 -12 38.5 -2.5t29.5 27.5zM596 7q-33 6 -54 24t-44 51q-34 49 -22 99q14 63 65 90q56 29 103 -2q47 -30 60 -105q11 -68 -22 -116q-35 -51 -86 -41zM132 636
q-10 -20 -9 -34.5t7 -24t24 -30.5q14 -13 33 -3t28 30q17 37 -12 74q-12 14 -37.5 9.5t-33.5 -21.5zM181 750q31 -12 49 -33.5t34 -59.5q23 -53 3 -101q-25 -61 -80 -77q-59 -18 -101 22q-42 39 -40 113q2 70 43 111q43 43 92 25z" />
    <glyph glyph-name="ampersand" unicode="&#x26;" horiz-adv-x="811" 
d="M188 393q-58 24 -93 53.5t-45 78.5q-15 75 58 139q36 31 107 73q141 39 252 -11q82 -37 112 -66q51 -50 41 -129q-14 -110 -96 -153q68 -35 90 -83l84 67l80 -112l-104 -66l84 -96l-84 -65l-87 79q-42 -56 -135 -72q-131 -22 -292 55q-89 44 -104 117q-6 32 3 61.5t33 54
t45 40.5t51 35zM319 623q-14 -3 -21.5 -9.5t-8.5 -18t0 -21.5t4 -27.5t4 -28.5v-19t0.5 -18t5 -14t12.5 -8q60 -11 92.5 -8.5t92.5 16.5q16 4 18 41q4 30 3 59t-11 58q-2 5 -6.5 8t-8 3.5t-13 1.5t-11.5 1q-16 5 -41 3t-31.5 -3t-33 -6.5t-46.5 -9.5zM197 129l155 -23
l15 216l-158 6z" />
    <glyph glyph-name="quotesingle" unicode="'" 
d="M97 473l3 129l-58 9l3 172l184 -6l-70 -319z" />
    <glyph glyph-name="parenleft" unicode="(" horiz-adv-x="397" 
d="M350 765q-9 -25 -36.5 -93t-43 -114.5t-32 -110.5t-15 -124t20.5 -114q8 -23 18 -44t26.5 -47t24 -37t31.5 -43.5t28 -37.5h-200q-7 13 -25.5 44.5t-27 46.5t-24.5 46t-23.5 49.5t-19 49.5t-16 54t-8.5 54.5t-2.5 59.5t7 61t15.5 66q39 124 139 234h163z" />
    <glyph glyph-name="parenright" unicode=")" horiz-adv-x="397" 
d="M46 765h163q102 -112 140 -234q10 -33 15.5 -66t7 -61t-2.5 -59.5t-8.5 -54.5t-16 -54t-19 -49.5t-23.5 -49.5t-24.5 -46t-27 -46.5t-25.5 -44.5h-200q5 6 23.5 32t25 35t21.5 31.5t23 36.5t17.5 34.5t16.5 39.5q19 54 20.5 114t-15 124t-32 110.5t-43 114.5t-36.5 93z
" />
    <glyph glyph-name="asterisk" unicode="*" horiz-adv-x="664" 
d="M369 473q-19 5 -35.5 -3.5t-23.5 -27.5q-17 -47 16 -80q20 -15 44.5 -13t44 19.5t15.5 37.5q-12 53 -61 67zM418 495q-1 -11 11 -18.5t20 -0.5q17 13 31 49.5t36 48.5q57 29 89 -12q37 -48 0 -101q-8 -12 -25 -19.5t-40 -12.5t-30 -8q-8 -3 -14.5 -12t-9 -20t4.5 -22
t25 -17q4 -1 26.5 -7t32 -10t25 -13.5t22.5 -23t8 -32.5q2 -47 -4.5 -75.5t-32.5 -53.5q-23 -21 -52 -23.5t-53 17.5q-25 22 -32.5 72t-16.5 69q-15 30 -33 31q-15 1 -27.5 -6.5t-16.5 -21.5q-7 -27 -2.5 -72t-3.5 -72q-11 -38 -52 -46q-29 -8 -57 -5.5t-47 23.5
q-37 41 -13 111q9 26 44.5 54t44.5 53q4 11 -10 17t-29 5q-20 -2 -49.5 -15.5t-49.5 -15.5q-42 -3 -61 16t-27 37t-16 52q-6 25 4 54t30 41q14 8 18 10.5t10 6t10 2t8 -2t14 -4t19 -6.5t35 -25.5t39 -23.5q5 0 14 -1t11.5 -0.5t7.5 2t7.5 5.5t5.5 12q4 13 -10.5 28.5
t-16.5 24.5q-4 14 -13 35l-13.5 31.5t-7 31t5.5 34.5q11 31 35 45t66 25q29 11 59.5 10t51.5 -22q17 -17 24.5 -37.5t7 -41.5t-0.5 -47q-1 -22 -18.5 -53.5t-18.5 -53.5z" />
    <glyph glyph-name="plus" unicode="+" horiz-adv-x="544" 
d="M177 492l-1 137h176l-5 -150l146 -11l-12 -154l-140 -1l-4 -116l-158 -13l-1 128l-131 -1l-9 191z" />
    <glyph glyph-name="comma" unicode="," 
d="M92 -108l25 133l-80 6l3 172l184 -6v-175l-70 -145z" />
    <glyph glyph-name="hyphen" unicode="-" horiz-adv-x="520" 
d="M44 289l-3 203l430 -7v-202z" />
    <glyph glyph-name="period" unicode="." horiz-adv-x="348" 
d="M55 0l3 212l228 6l-10 -218h-221z" />
    <glyph glyph-name="slash" unicode="/" horiz-adv-x="464" 
d="M166 0l-141 95l282 685l126 -89z" />
    <glyph glyph-name="zero" unicode="0" horiz-adv-x="618" 
d="M292 639q-8 -1 -14 -4t-11 -9t-8 -11t-5.5 -14.5t-4 -14.5t-3.5 -17t-3 -16q-13 -57 -6 -163q1 -21 3 -61t3.5 -59.5t7 -50.5t16.5 -62q26 -79 74 -74q44 4 58 86q8 47 9.5 93.5t0 73t-6.5 94.5q-4 51 -10.5 80.5t-25.5 63.5q-11 23 -18.5 34.5t-22.5 22.5t-33 8zM301 0
q-89 -3 -150 61q-36 38 -52 76.5t-31 105.5q-33 136 -25 273q4 84 49 148q22 32 46.5 49t67.5 37q45 19 104 12q11 -1 31 -3t31.5 -3.5t26 -5t26 -11.5t20.5 -20q32 -41 53 -87.5t28 -73.5t24 -100q24 -109 3 -231q-10 -58 -23.5 -91t-47.5 -65q-42 -38 -82.5 -53.5
t-98.5 -17.5z" />
    <glyph glyph-name="one" unicode="1" horiz-adv-x="437" 
d="M157 0l33 574l-132 -15l7 154l294 55l-40 -768h-162z" />
    <glyph glyph-name="two" unicode="2" horiz-adv-x="683" 
d="M28 584q46 95 113 135q52 31 126 37q61 5 161 -33t110 -91l15 -145l-209 -281l280 49l21 -181l-507 -74l-27 172l268 365q-62 34 -123 28.5t-106 -28.5t-70 -55z" />
    <glyph glyph-name="three" unicode="3" horiz-adv-x="615" 
d="M31 244q21 -7 59 -21t63 -21.5t59 -15t68 -7t70 9.5q27 16 38.5 33t7.5 34t-14 32t-31 31.5t-37.5 28t-40 26t-33.5 21.5l6 86l175 147q-199 -20 -347 -101l15 215l479 -12l-17 -147l-210 -117q19 -16 66 -48t69 -51q57 -50 67 -130.5t-34 -149.5t-128 -87
q-59 -12 -123 0q-70 13 -129 51z" />
    <glyph glyph-name="four" unicode="4" horiz-adv-x="678" 
d="M481 195l-8 -195h-144l10 198l-253 7q-91 298 -32 531l218 6l-51 -421l125 -4l25 425l138 -6l-22 -424l167 -6l-83 -114z" />
    <glyph glyph-name="five" unicode="5" horiz-adv-x="618" 
d="M212 611v-135q107 -12 177.5 -30.5t120.5 -52.5q55 -37 67 -91.5t-21 -144.5q-19 -49 -75 -82.5t-131.5 -48.5t-138.5 -20.5t-128 -5.5l-43 144q11 2 35 4.5t47.5 5t55 6.5t58 8.5t55.5 11.5t47.5 15t35 19.5t18 25t-4.5 30.5q-17 34 -68 43l-270 19l12 411l384 -6
l-21 -193z" />
    <glyph glyph-name="six" unicode="6" horiz-adv-x="643" 
d="M362 331q-16 15 -32.5 23t-37.5 10t-35 1.5t-43 -3.5t-42 -4q-32 -1 -40 -43q-13 -64 0 -159q6 -40 28 -46q32 -10 49 -15t41.5 -9t46.5 -2.5t47 7.5q33 8 37 74q1 14 5.5 45.5t5 47t-6 36.5t-23.5 37zM230 472q39 22 99 29q187 25 249 -84q41 -79 30 -184.5t-60 -159.5
q-46 -50 -142 -69q-74 -15 -154 -4q-113 16 -162 79.5t-56 189.5q-7 118 24 243q32 128 83 209l209 -12q-4 -6 -22 -29t-24 -31.5t-20.5 -29.5t-20.5 -34t-14.5 -33t-12.5 -39.5t-6 -40.5z" />
    <glyph glyph-name="seven" unicode="7" horiz-adv-x="649" 
d="M384 593q-50 1 -74 0.5t-58 -6.5q-28 -5 -89 -34q-13 -6 -86 -52q-9 -6 -40 -31l9 290l556 5l-19 -174l-349 -591l-155 26z" />
    <glyph glyph-name="eight" unicode="8" horiz-adv-x="673" 
d="M298 329q-12 2 -20.5 -4t-13.5 -19.5t-7 -23.5t-5 -27q-8 -34 -7.5 -68t19.5 -61q15 -17 36 -15.5t41 15.5q33 26 48.5 49.5t9.5 54.5q-8 41 -34.5 66.5t-66.5 32.5zM482 651q-37 38 -101 -3q-7 -5 -12 -11t-7 -15t-2.5 -14.5t-0.5 -19v-17.5q-1 -13 -3.5 -35.5
t-3.5 -35.5t3.5 -30t16.5 -31q21 -23 51 -25.5t56 16.5q11 8 16.5 20t6 20.5t0 27.5t-0.5 27q0 11 2 34t2 35t-5.5 28t-17.5 29zM154 409q-89 44 -104 116q-15 75 58 139q36 31 107 73q90 25 166 14q44 -6 86 -25q82 -37 112 -66q51 -50 41 -129q-14 -110 -96 -153
q54 -28 82 -66.5t20 -103.5q-10 -80 -53.5 -122.5t-120.5 -55.5q-131 -22 -292 55q-89 44 -104 117q-15 74 58 138q23 21 74 53q-7 3 -18.5 8.5t-15.5 7.5z" />
    <glyph glyph-name="nine" unicode="9" horiz-adv-x="615" 
d="M312 358q9 3 19 11t15.5 13.5t16 18t11.5 13.5q6 6 11 12.5t10 14t8 12.5t7.5 15t6.5 14t6 16.5t5.5 16t6.5 18.5t6 19q3 9 3 18.5t-0.5 15.5t-5.5 16.5t-7.5 14t-11 16t-10.5 15.5t-7.5 12t-8 12t-7.5 10t-8.5 10t-9 6.5t-11.5 4.5t-13 1q-15 -1 -27.5 -4.5t-25 -11
t-20 -12.5t-22.5 -17.5t-22 -18.5q-26 -20 -39 -35.5t-17 -38.5q-7 -42 30 -94q9 -14 23 -41.5t23.5 -43.5t26.5 -26t38 -3zM371 303q-36 -23 -60.5 -29.5t-62.5 -9.5q-46 -8 -84 -0.5t-66 41.5q-41 50 -52 102t-7 130q2 34 5 56.5t10.5 49.5t23.5 46t40 30q69 30 123 42.5
t114.5 4.5t117.5 -44q161 -100 62 -470q-7 -27 -15 -49t-19.5 -41t-19.5 -32t-25 -27.5t-25.5 -22.5t-31.5 -21t-32.5 -18t-39 -20t-41.5 -21l-118 109q35 16 62 31t58 38.5t52.5 55t30.5 69.5z" />
    <glyph glyph-name="colon" unicode=":" 
d="M41 288l3 168l187 5l-8 -173h-182zM224 22l-187 9l3 172l184 -6v-175z" />
    <glyph glyph-name="semicolon" unicode=";" 
d="M41 288l3 168l187 5l-8 -173h-182zM92 -108l25 133l-80 6l3 172l184 -6v-175l-70 -145z" />
    <glyph glyph-name="less" unicode="&#x3c;" horiz-adv-x="394" 
d="M217 146l-187 222l-3 64l209 209l95 -160l-166 -77l196 -122z" />
    <glyph glyph-name="equal" unicode="=" horiz-adv-x="529" 
d="M58 218l-6 129l418 3l3 -132h-415zM46 445v142l421 -3v-129z" />
    <glyph glyph-name="greater" unicode="&#x3e;" horiz-adv-x="394" 
d="M171 641l187 -221l3 -65l-208 -209l-96 160l166 77l-196 123z" />
    <glyph glyph-name="question" unicode="?" horiz-adv-x="673" 
d="M257 -7l-11 125l145 17l7 -130zM141 476l-101 55q22 189 157 216q143 28 224 9q54 -12 100 -44t71 -75.5t31 -90t-20 -94.5t-81 -83q-27 -17 -74.5 -31.5t-88.5 -18.5l22 -138l-132 -6l-40 215q12 2 74 7t101.5 17.5t51.5 40.5q13 31 -6.5 63t-79.5 44q-26 5 -47 7
t-39.5 -2.5t-29.5 -7t-26.5 -16t-21 -18.5t-23 -24t-22.5 -25z" />
    <glyph glyph-name="at" unicode="@" horiz-adv-x="741" 
d="M285 429q0 -19 12.5 -32.5t29.5 -13.5t30 13.5t13 32.5t-13 33t-30 14t-29.5 -14t-12.5 -33zM491 545l-32 -202q4 -32 21 -44.5t37.5 -7.5t39.5 18.5t27 28.5q31 62 23 118t-38.5 96.5t-72.5 60.5q-65 31 -157 22q-52 -5 -93 -46t-60.5 -96.5t-27.5 -110.5t-2 -93
q14 -89 83 -133t183 -41q99 3 223 44l16 -116q-145 -52 -268 -53q-143 -2 -227 43t-119 163q-23 67 -15 170t52 202q42 94 120 147q78 54 191 55q70 1 113.5 -19t86.5 -61q131 -126 95 -292q-8 -35 -14 -57.5t-19.5 -51.5t-30 -45.5t-44.5 -28t-64 -9.5q-31 2 -60.5 13
t-54 39.5t-24.5 69.5q-25 -18 -53 -18q-41 0 -69.5 33.5t-28.5 82.5t28.5 83t69.5 34q42 0 71 -36l4 38h90z" />
    <glyph glyph-name="A" unicode="A" horiz-adv-x="667" 
d="M378 510l-68 -3l-18 -138l98 21zM25 0l141 525l-154 -6l3 227l421 4l194 -750h-166l-68 246h-104l-52 -246h-215z" />
    <glyph glyph-name="B" unicode="B" horiz-adv-x="701" 
d="M267 85q60 5 112.5 18.5t85 30.5t41.5 36.5t-9 36.5t-76 30.5t-151 17.5zM270 455l172 6l7 169l-185 27zM71 0l-6 765l264 -6q102 -9 159 -34q61 -27 77.5 -92t-5.5 -128t-66 -93q-42 -29 -128 -56q60 -2 132 -36q80 -39 121 -78.5t26 -94.5q-16 -57 -66.5 -90
t-145.5 -46q-62 -8 -198.5 -8.5t-163.5 -2.5z" />
    <glyph glyph-name="C" unicode="C" horiz-adv-x="635" 
d="M440 559l-114 2q-35 -8 -52.5 -27.5t-32.5 -54.5q-28 -76 -27 -150t27 -130.5t63 -62.5l122 -5l5 140l141 -6l2 -261l-329 19q-38 0 -83 17.5t-61 50.5q-40 82 -49 175q-28 276 41 401q12 21 41 41.5t60 29.5l372 3v-284l-122 -9z" />
    <glyph glyph-name="D" unicode="D" horiz-adv-x="670" 
d="M308 121q15 2 35 2.5t36.5 2.5t33.5 7q29 8 53 37q14 17 18.5 23.5t11 20t9.5 28.5q8 47 10.5 63t3 47.5t-5.5 63.5q-7 32 -55 53q-22 10 -42 14.5t-46 7.5t-43 7zM58 0l13 756q138 0 182 -7q31 -6 76 -18q9 -3 40 -11t40.5 -11t33 -11.5t35 -16.5t28 -21t29.5 -30
q13 -16 22.5 -31t16.5 -33t11 -30t7.5 -34.5t5 -32.5t4 -38t3.5 -38q6 -70 1.5 -117.5t-22.5 -115.5q-17 -67 -65 -95q-49 -29 -178 -47q-91 -13 -133 -15.5t-150 -2.5z" />
    <glyph glyph-name="E" unicode="E" horiz-adv-x="563" 
d="M61 0v716l431 -6l-7 -123h-218v-212l212 3l-6 -117l-276 -9v-101l285 9v-132z" />
    <glyph glyph-name="F" unicode="F" horiz-adv-x="544" 
d="M55 18l3 735l427 9l-3 -154l-212 -6l3 -104h212l-6 -154l-289 9l-3 -325z" />
    <glyph glyph-name="G" unicode="G" horiz-adv-x="602" 
d="M504 495h-117l3 101l-187 -6l3 -433l193 3l7 77l-126 12l3 129l261 -37l-6 -341h-348q-35 -2 -62 28.5t-43 82t-24.5 105.5t-10.5 110q-9 186 8 285q22 124 105 132l341 3v-251z" />
    <glyph glyph-name="H" unicode="H" horiz-adv-x="633" 
d="M65 0v740l159 -6l-6 -338h184l7 347l150 -9l-3 -737l-212 3l-3 246l-175 -6l-6 -240h-95z" />
    <glyph glyph-name="I" unicode="I" horiz-adv-x="378" 
d="M203 538l-135 24l-19 181l169 22l80 -120zM52 0l40 439l166 6l71 -445h-277z" />
    <glyph glyph-name="J" unicode="J" horiz-adv-x="618" 
d="M383 604l-172 -27l-3 159l338 -6l1 -567q2 -61 -36 -105.5t-81 -57.5h-230q-78 -1 -114 30t-34 87v181l145 -12l-7 -126l123 -3q75 5 83 101z" />
    <glyph glyph-name="K" unicode="K" horiz-adv-x="726" 
d="M49 0v740l151 3l15 -298l132 7l188 301l138 3l-212 -344l196 -412h-184l-141 280l-99 9l-9 -289h-175z" />
    <glyph glyph-name="L" unicode="L" horiz-adv-x="541" 
d="M52 0l28 725l206 15l-68 -531l240 31l34 -203z" />
    <glyph glyph-name="M" unicode="M" horiz-adv-x="784" 
d="M111 0l15 550l-95 28l12 175l230 -3l157 -329l157 322l132 3l18 -746h-144l-6 399l-92 -307l-136 16l-101 325l-3 -433h-144z" />
    <glyph glyph-name="N" unicode="N" horiz-adv-x="714" 
d="M111 0v593l-105 6v147l261 7l231 -541l-6 528l156 -3l3 -737h-227l-169 442v-442h-144z" />
    <glyph glyph-name="O" unicode="O" horiz-adv-x="645" 
d="M232 111q61 -46 101 -23q41 24 53.5 103.5t5.5 149.5q-8 82 -70 117q-35 20 -67.5 20.5t-58.5 -26.5q-33 -41 -39.5 -92t2.5 -105q6 -50 21.5 -83.5t51.5 -60.5zM322 0q-230 14 -262 243q-13 90 -17.5 156t6 144.5t42.5 126.5q37 54 105 73q112 31 202.5 1t150.5 -102
q49 -59 51 -187q2 -116 -8.5 -191t-45.5 -131q-38 -60 -111 -102q-58 -33 -113 -31z" />
    <glyph glyph-name="P" unicode="P" horiz-adv-x="529" 
d="M28 777q80 3 137 0.5t114 -17.5q58 -14 90.5 -31.5t66.5 -54.5q13 -14 22 -29.5t14 -27t9.5 -31.5t5.5 -28.5t3.5 -34.5t3.5 -34q8 -72 -17.5 -146t-71.5 -99q-63 -34 -134 -43q-10 -2 -42 -2h-36l-9 -199h-163q1 105 3 401t4 376zM114 280q12 1 29 2t30.5 2.5t28.5 5.5
q24 7 44 28q28 31 33 55q8 41 9.5 129t-6.5 129q-6 25 -47 41q-3 1 -12 5t-11.5 5t-9.5 3.5t-10 3t-9.5 2.5t-11 2t-12.5 1t-16 1h-18z" />
    <glyph glyph-name="Q" unicode="Q" horiz-adv-x="636" 
d="M319 516q-36 -4 -53 -20t-22 -57q-7 -59 -5 -239q0 -11 -0.5 -26.5t-0.5 -22t1.5 -15.5t4.5 -12.5t9.5 -7.5t16.5 -5.5t25 -1.5q14 0 41 -1.5t39 -0.5q31 1 49.5 11t27.5 36q2 5 2 18.5t-1 30.5t-1 21q4 136 4 206q0 53 -14.5 73.5t-45 19t-77.5 -6.5zM461 0h-277
q-60 0 -98 51.5t-40 145.5l-9 448q6 49 43.5 74.5t100.5 39.5l249 3q53 7 91 -48.5t38 -108.5l15 -513l96 -169z" />
    <glyph glyph-name="R" unicode="R" horiz-adv-x="612" 
d="M270 316q105 3 144 44t41 150q1 38 -18 69.5t-50 47.5q-31 17 -104 15zM55 0l16 740q20 1 70 3t78 2.5t73.5 0.5t75 -4t63.5 -11t58.5 -20t40.5 -32q33 -37 44.5 -100.5t2 -128.5t-34.5 -115q-34 -70 -100 -92l136 -243h-176l-105 207l-88 -4l-3 -203h-151z" />
    <glyph glyph-name="S" unicode="S" horiz-adv-x="587" 
d="M52 0v206l181 -9q54 5 74 46q17 35 11.5 59.5t-29.5 32.5q-67 23 -111 45q-55 28 -87 62q-46 50 -46 129t45 120q21 19 45 32.5t44.5 22.5t52.5 13.5t52 6.5t60 0.5t59 -3t67 -5.5t68 -5l-22 -194q-24 1 -92.5 12t-104 8t-49.5 -26q-5 -9 -6 -17t2 -15t8 -13t13.5 -12
t15.5 -10.5t17.5 -9t17.5 -7t16 -6t12 -4.5q64 -25 92 -45q41 -28 57 -81t8.5 -109.5t-32.5 -109.5q-44 -91 -116 -99z" />
    <glyph glyph-name="T" unicode="T" horiz-adv-x="676" 
d="M243 0l-3 486l-188 2l-15 258l593 4l3 -160l-194 -6l10 -584h-206z" />
    <glyph glyph-name="U" unicode="U" horiz-adv-x="624" 
d="M574 114q-14 -114 -144 -114h-231q-54 -7 -100.5 48t-46.5 106l-9 591l127 -31q-4 -11 -4 -101q0 -15 -5 -131t-5 -153q0 -53 14.5 -73.5t44.5 -19t77 6.5q36 4 53.5 20t22.5 56q6 52 4 240l-3 183l213 -3z" />
    <glyph glyph-name="V" unicode="V" horiz-adv-x="661" 
d="M237 0l-215 725l248 6l117 -553l169 578l86 -31l-200 -725h-205z" />
    <glyph glyph-name="W" unicode="W" horiz-adv-x="944" 
d="M159 31l-137 722l125 10l104 -579l49 -6l90 572l166 -4l100 -552l46 6l84 550l133 -7l-137 -725q-127 -32 -230 -18l-85 341l-50 -341q-142 -14 -258 31z" />
    <glyph glyph-name="X" unicode="X" horiz-adv-x="686" 
d="M441 329l195 -329h-157l-107 191l-96 -191h-264l265 360l-255 390l138 -7l198 -273l210 270l92 -9z" />
    <glyph glyph-name="Y" unicode="Y" horiz-adv-x="624" 
d="M34 366l24 396l194 -6q-5 -88 -18.5 -145.5t-26 -76t-20 -44t-3.5 -63.5q44 -40 114.5 -45t137.5 27q-1 104 -13.5 180.5t-41.5 166.5h190l16 -400q-3 -47 -62 -92q-41 -31 -107 -33v-231h-197v239q-11 1 -43 8q-82 18 -104 33q-36 23 -40 86z" />
    <glyph glyph-name="Z" unicode="Z" horiz-adv-x="621" 
d="M378 547h-313l-31 199l513 -9l6 -292l-289 -273l301 43l9 -190l-513 -25v258z" />
    <glyph glyph-name="bracketleft" unicode="[" horiz-adv-x="385" 
d="M323 756l-7 -172l-126 -6l10 -400l119 -6l-3 -172h-258l-6 762z" />
    <glyph glyph-name="backslash" unicode="\" horiz-adv-x="464" 
d="M292 0l-267 691l126 89l282 -685z" />
    <glyph glyph-name="bracketright" unicode="]" horiz-adv-x="385" 
d="M52 6l6 172l126 6l-9 400l-120 6l3 172h258l7 -762z" />
    <glyph glyph-name="asciicircum" unicode="^" horiz-adv-x="510" 
d="M40 455l129 298l154 3l156 -304h-126l-70 162l-59 -169z" />
    <glyph glyph-name="underscore" unicode="_" horiz-adv-x="646" 
d="M43 -15v166l559 -7l-3 -166z" />
    <glyph glyph-name="grave" unicode="`" 
d="M174 473l-61 -15l-71 319l184 6l3 -172l-58 -9z" />
    <glyph glyph-name="a" unicode="a" horiz-adv-x="468" 
d="M271 357l-47 -2l-13 -97l68 15zM24 0l98 368l-107 -5l2 160l295 2l135 -525h-116l-47 172h-73l-37 -172h-150z" />
    <glyph glyph-name="b" unicode="b" horiz-adv-x="461" 
d="M173 59q51 4 93 16.5t60.5 28t15.5 31t-46 27.5t-120 16zM176 318l120 5l4 118l-129 19zM36 0l-4 535l184 -4q75 -7 112 -24q42 -19 54 -64t-4 -89.5t-46 -65.5q-28 -19 -90 -39q43 0 93 -25q56 -27 85 -54.5t18 -66.5q-11 -40 -46 -63t-102 -32q-44 -6 -140.5 -6.5
t-113.5 -1.5z" />
    <glyph glyph-name="c" unicode="c" horiz-adv-x="420" 
d="M296 389l-80 1q-24 -6 -36.5 -19.5t-22.5 -37.5q-30 -75 -13.5 -154t57.5 -86l86 -4l3 98l99 -4l1 -183l-230 13q-26 0 -58 12.5t-43 35.5q-28 55 -34 122q-19 192 29 281q8 15 28.5 29.5t41.5 20.5l261 2v-199l-86 -6z" />
    <glyph glyph-name="d" unicode="d" horiz-adv-x="456" 
d="M211 85q8 1 32.5 2t40.5 6q22 6 37 26q23 28 27 50q15 77 6 122q-4 21 -39 37q-15 7 -29 10t-31.5 5t-30.5 5zM36 0l8 529h27.5h24h19t18 -0.5t14 -1t14.5 -1.5t13.5 -2t15.5 -3t15.5 -4t19.5 -5q3 -1 21 -5.5t21.5 -5.5t18.5 -5.5t19.5 -7.5t16 -8t17.5 -10.5
t14.5 -12.5t15.5 -16q9 -11 16 -21.5t11.5 -23.5t7.5 -20t6 -24.5t3.5 -22.5t3 -27t2.5 -27q7 -77 -15 -163q-13 -47 -46 -67q-31 -18 -124 -32q-11 -2 -36 -5.5t-31.5 -4.5t-24.5 -2.5t-30 -1.5h-31.5t-44.5 1z" />
    <glyph glyph-name="e" unicode="e" horiz-adv-x="364" 
d="M28 0v501l301 -4l-5 -86h-152v-149l148 2l-4 -81l-194 -7v-71l200 7v-93z" />
    <glyph glyph-name="f" unicode="f" horiz-adv-x="375" 
d="M34 0l2 514l299 6l-2 -107l-149 -4l2 -74h149l-4 -107l-203 6l-2 -228z" />
    <glyph glyph-name="g" unicode="g" horiz-adv-x="415" 
d="M352 346h-82l3 71l-132 -4l3 -303l135 2l4 54l-88 8l2 90l183 -25l-4 -239h-243q-25 -1 -44 20t-30 57t-17 74t-8 77q-6 134 6 200q15 86 73 92l239 3v-177z" />
    <glyph glyph-name="h" unicode="h" horiz-adv-x="413" 
d="M28 0v518l111 -4l-4 -237h129l4 243l106 -6l-2 -516l-149 2l-2 172l-122 -4l-5 -168h-66z" />
    <glyph glyph-name="i" unicode="i" horiz-adv-x="258" 
d="M138 376l-94 18l-13 126l118 15l56 -83zM33 0l28 308l116 4l49 -312h-193z" />
    <glyph glyph-name="j" unicode="j" horiz-adv-x="409" 
d="M256 423l-120 -19l-2 111l236 -4l1 -397q1 -42 -25.5 -73.5t-56.5 -40.5h-161q-54 -1 -79.5 21t-23.5 61v127l101 -9l-4 -88l86 -2q52 3 58 71z" />
    <glyph glyph-name="k" unicode="k" horiz-adv-x="509" 
d="M39 0v518l105 2l11 -208l93 4l131 211l96 2l-148 -241l138 -288h-129l-99 196l-69 6l-7 -202h-122z" />
    <glyph glyph-name="l" unicode="l" horiz-adv-x="369" 
d="M31 0l19 507l144 11l-47 -372l168 22l23 -142z" />
    <glyph glyph-name="m" unicode="m" horiz-adv-x="546" 
d="M75 0l11 385l-67 19l9 123l161 -2l110 -230l109 225l93 3l13 -523h-101l-5 280l-64 -215l-95 10l-71 228l-2 -303h-101z" />
    <glyph glyph-name="n" unicode="n" horiz-adv-x="509" 
d="M95 0v415l-73 4v104l182 4l162 -379l-5 370l110 -2l2 -516h-159l-118 310v-310h-101z" />
    <glyph glyph-name="o" unicode="o" horiz-adv-x="455" 
d="M167 77q67 -51 96 17q25 60 16 145q-6 56 -50 81q-58 33 -88 -4q-23 -29 -28 -64.5t2 -73.5q8 -67 52 -101zM229 0q-159 10 -182 170q-7 50 -10.5 88.5t-1.5 85.5t12 79.5t33.5 59.5t60.5 37q80 22 143.5 0t104.5 -71q33 -41 35 -131q1 -87 -7.5 -140.5t-36.5 -93.5
q-24 -34 -65.5 -60t-85.5 -24z" />
    <glyph glyph-name="p" unicode="p" horiz-adv-x="392" 
d="M34 544q114 3 175 -12q40 -10 63 -22.5t47 -38.5q10 -12 17 -23t11 -26.5t5.5 -22.5t3.5 -29.5t3 -27.5q5 -51 -12.5 -102.5t-49.5 -68.5q-46 -25 -94 -31q-9 -2 -29 -1.5t-25 0.5l-7 -139h-114q1 51 3 267.5t3 276.5zM94 196q5 1 26 2t35 5q15 4 31 20q19 20 23 38
q6 30 7 90.5t-5 90.5q-4 16 -33 29q-36 15 -77 15z" />
    <glyph glyph-name="q" unicode="q" horiz-adv-x="425" 
d="M223 361q-25 -2 -37 -13.5t-16 -39.5q-6 -52 -4 -168q0 -8 -0.5 -24t0.5 -19.5t4.5 -10.5t11.5 -8.5t23 -1.5q9 0 28.5 -1t27.5 0q43 2 54 33v49l3 144q0 37 -10 51.5t-31 13.5t-54 -5zM322 0h-194q-42 0 -69 36t-28 102l-6 314q7 59 101 79l174 2q37 5 63.5 -33
t26.5 -76l11 -359l67 -119z" />
    <glyph glyph-name="r" unicode="r" horiz-adv-x="416" 
d="M179 221q74 2 100.5 31t28.5 105q1 26 -12 48t-35 34t-73 10zM29 0l11 518q12 0 49 2t55 2.5t51 0.5t53 -3t44 -8t41 -14.5t28 -22.5q34 -40 35 -115t-27 -126q-25 -49 -70 -64l95 -170h-122l-74 145l-62 -3l-2 -142h-105z" />
    <glyph glyph-name="s" unicode="s" horiz-adv-x="412" 
d="M40 0v144l127 -6q37 3 51 32q12 24 8.5 42t-20.5 23q-48 16 -78 31q-39 20 -61 44q-33 35 -33 90t32 84q16 15 33 25.5t41.5 16t38.5 8.5t48 2.5t45 -1t54.5 -4t53.5 -4.5l-15 -136q-17 1 -65 8.5t-73 5.5t-35 -18q-4 -6 -4.5 -11.5t1.5 -10.5t5.5 -9.5t9.5 -8.5t11 -7
t12.5 -6t12 -5t11 -4t8.5 -3q43 -17 65 -32q43 -29 47 -94t-24 -116q-29 -62 -81 -69z" />
    <glyph glyph-name="t" unicode="t" horiz-adv-x="477" 
d="M171 0l-2 340l-131 2l-11 181l415 2l2 -112l-135 -4l6 -409h-144z" />
    <glyph glyph-name="u" unicode="u" horiz-adv-x="446" 
d="M402 80q-10 -80 -101 -80h-162q-38 -5 -70 33.5t-32 74.5l-7 414l89 -22q-3 -8 -3 -71q0 -19 -3.5 -97t-3.5 -102q0 -37 10 -51.5t31 -13.5t54 5q25 2 37 14t16 40q6 52 4 167l-3 129l149 -2z" />
    <glyph glyph-name="v" unicode="v" horiz-adv-x="470" 
d="M166 0l-150 507l174 5l82 -387l118 404l60 -22l-140 -507h-144z" />
    <glyph glyph-name="w" unicode="w" horiz-adv-x="678" 
d="M118 22l-96 505l88 7l73 -405l34 -4l63 400l116 -2l71 -388l32 5l59 385l92 -5l-95 -507q-86 -23 -161 -13l-60 239l-35 -239q-98 -10 -181 22z" />
    <glyph glyph-name="x" unicode="x" horiz-adv-x="494" 
d="M318 230l136 -230h-109l-75 134l-67 -134h-185l185 252l-179 273l97 -5l139 -191l147 189l65 -6z" />
    <glyph glyph-name="y" unicode="y" horiz-adv-x="435" 
d="M24 256l17 277l136 -4q-4 -62 -13.5 -102t-18 -53t-14 -31t-2.5 -44q31 -28 80.5 -31.5t96.5 18.5q-1 124 -39 243h133l11 -280q-2 -32 -43 -64q-28 -21 -75 -23v-162h-138v167l-30 6q-28 6 -36 8t-25.5 8.5t-22 13.5t-10.5 20.5t-7 32.5z" />
    <glyph glyph-name="z" unicode="z" horiz-adv-x="423" 
d="M260 383h-219l-21 140l359 -7l4 -204l-202 -192l211 31l6 -134l-359 -17v181z" />
    <glyph glyph-name="braceleft" unicode="{" horiz-adv-x="423" 
d="M361 756l-6 -172l-126 -6l10 -400l119 -6l-3 -172h-258l-2 299l-83 55l2 82l79 51l-2 275z" />
    <glyph glyph-name="bar" unicode="|" horiz-adv-x="271" 
d="M52 0l3 746l154 10v-756h-157z" />
    <glyph glyph-name="braceright" unicode="}" horiz-adv-x="440" 
d="M52 6l6 172l126 6l-9 400l-120 6l3 172h258l2 -254l100 -49l2 -105l-100 -66l3 -288z" />
    <glyph glyph-name="asciitilde" unicode="~" horiz-adv-x="581" 
d="M40 280l3 193q63 30 97 39t78 3q41 -6 87.5 -25t73.5 -31t68 -5.5t88 41.5l-4 -163q-44 -38 -83.5 -48t-67 -1.5t-76.5 23t-92 17.5q-15 -1 -20.5 1t-19 -1t-18 -2.5t-17.5 -3.5t-17 -5.5t-18 -6.5t-19 -7t-20.5 -8.5t-22.5 -9.5z" />
    <glyph glyph-name="ellipsis" unicode="&#x2026;" horiz-adv-x="1044" 
d="M751 0l3 212l228 6l-10 -218h-221zM403 0l3 212l228 6l-10 -218h-221zM55 0l3 212l228 6l-10 -218h-221z" />
    <glyph glyph-name="quoteleft" unicode="&#x2018;" 
d="M174 473l-61 -15l-71 319l184 6l3 -172l-58 -9z" />
    <glyph glyph-name="quoteright" unicode="&#x2019;" 
d="M97 473l3 129l-58 9l3 172l184 -6l-70 -319z" />
    <glyph glyph-name="quotedblleft" unicode="&#x201c;" horiz-adv-x="489" 
d="M172 473l-61 -15l-71 319l184 6l3 -172l-58 -9zM393 476l-61 -15l-71 319l184 6l4 -172l-59 -9z" />
    <glyph glyph-name="quotedblright" unicode="&#x201d;" horiz-adv-x="489" 
d="M316 473l3 129l-58 9l3 172l185 -6l-71 -319zM95 476l3 129l-58 9l3 172l184 -6l-70 -319z" />
    <glyph glyph-name="Agrave" unicode="&#xc0;" horiz-adv-x="888" 
d="M67 171q13 14 30 2q10 -7 4 -10q-3 -1 -10 3q-10 6 -16 1.5t-6 -17.5t6 -17.5t16 1.5q8 5 11 2.5t-5 -8.5q-15 -11 -29 1q-8 7 -8 20.5t7 21.5zM835 111q0 5 8.5 6.5t11.5 -3.5q2 -4 -4.5 -9t-10.5 -3q-5 5 -5 9zM757 137q0 25 1.5 31t7.5 6q8 0 8 -4t9 0q18 10 26.5 0
t8.5 -40q0 -20 -1.5 -25t-7.5 -5t-7 4t-1 24q0 28 -7 31q-10 4 -15 -4.5t-5 -28.5q0 -18 -1 -22t-7 -4t-7.5 6t-1.5 31zM699 171q17 5 31 -4t14 -25q0 -8 -3.5 -9.5t-21.5 -1.5h-25l10 -10q9 -9 20 -4t14 0q6 -9 -12 -14q-14 -3 -26 2q-21 10 -21 33q0 8 7 20t13 13z
M722 155q-9 10 -20 -1q-4 -4 -4.5 -5.5t2 -2t9.5 -1.5q17 -2 17 3q0 3 -4 7zM609 171q0 3 8 3q9 0 14 -24q6 -24 8 -24q3 0 9 24q5 24 13 24t8 -5t-10 -35q-12 -34 -20 -34q-7 0 -19 34q-11 35 -11 37zM553 169q19 9 33 -1q9 -5 10 -37l2 -30l-24 1q-23 1 -27 2t-8 9
q-6 10 0.5 18.5t21.5 10.5q17 3 17 9t-7 8.5t-11 -2.5q-9 -9 -18 -4q-3 2 -2 5q2 5 13 11zM578 126q0 18 -20 3q-8 -7 -3 -12t14 -1.5t9 10.5zM481 171q17 5 31 -4t14 -25q0 -8 -3.5 -9.5t-21.5 -1.5h-25l10 -10q9 -9 20 -4t14 0q6 -10 -12 -14q-14 -3 -25 2
q-9 4 -15.5 13.5t-6.5 19.5q0 8 7 20t13 13zM504 155q-9 10 -20 -1q-4 -4 -4.5 -5.5t2 -2t9.5 -1.5q17 -2 17 3q0 3 -4 7zM262 135l-14 39h10q6 0 9 -4t7 -17q6 -22 8 -22t8 22q4 13 7 17t9 4h10l-16 -46q-20 -58 -38 -58q-12 0 -1 12q2 3 5 5l10 8zM365 150q0 35 1.5 42.5
t7.5 7.5q5 0 6.5 -3t1.5 -16v-20h22h22v20q0 12 2 15.5t7 3.5q6 0 7 -7t1 -43t-1 -43t-7 -7q-9 0 -10 23l-1 23h-20h-20l-1 -23q-1 -23 -10 -23q-6 0 -7 7t-1 43zM66 196q16 6 35 -2q29 -12 29 -44q0 -33 -33 -45q-29 -9 -48 14q-15 18 -9.5 43.5t26.5 33.5zM111 181
q-19 16 -40.5 8t-26.5 -27.5t11 -39.5q12 -12 27.5 -13t28.5 10q12 11 12 31t-12 31zM178 153q0 37 1 44.5t7 7.5q9 0 9 -20q0 -14 1.5 -16t9.5 2q17 7 29 -11t4 -39q-4 -12 -14 -17t-20 0q-6 2 -8 2.5t-2 -1.5q0 -5 -9 -5q-6 0 -7 7.5t-1 45.5zM218 155q-10 9 -18 1
t-5 -25.5t13 -17.5q5 0 11 8.5t6 15.5q0 11 -7 18zM749 372q6 2 20 2q12 0 12.5 -4.5t-7.5 -43.5q-9 -45 6 -49q13 -2 23 2l12 4l-3 31q-4 32 -7 42q-3 8 -1 9t15 1h18l-3 -39q-2 -34 -5.5 -43.5t-13.5 -11.5t-10 -20q0 -13 -2 -15t-13 -2q-10 0 -12.5 3t-3.5 14
q-1 16 -12 17q-10 1 -14 14.5t-4 47.5q0 39 5 41zM657 358v17h39q39 0 39 -7q0 -8 -30 -5l-31 3v-11q0 -7 3 -9t17 -2q13 0 16 -1.5t3 -6.5q0 -9 -12 -9t-14.5 -4t-0.5 -21q1 -13 4.5 -16t19.5 -5q15 -2 18 -4.5t3 -12.5q0 -13 -7 -16.5t-34 -3.5h-28l-2 49q-3 41 -3 65z
M454 309l-1 66h14q10 0 14.5 -5.5t16.5 -30.5l17 -36l2 36l1 36h15h15l-2 -34q-1 -10 -3 -33.5t-2 -32.5l-3 -31l-13 1q-10 1 -14 7.5t-18 41.5l-19 48v-49q0 -49 -10 -49q-8 0 -9 8t-1 57zM571 376q10 2 37 2l27 1v-21v-10.5t-1 -6.5t-2 -3h-3q-5 1 -9 11q-3 9 -15 7
l-11 -1v-48v-48l14 -1q10 -1 12 1t2 11q0 13 -7 13q-6 0 -6 11q0 8 3 9.5t16 1.5h20v-31v-31l-43 2q-44 2 -46 4q-4 4 0 64q2 45 3.5 53.5t8.5 9.5zM363 375q45 10 60 -1q12 -8 14 -58t-9 -59q-5 -5 -42 -3l-36 1l-4 21q-4 21 0 59q3 28 5 33t12 7zM405 320q-2 20 -4.5 23.5
t-12.5 4.5q-14 2 -17.5 -6.5t-3.5 -40.5v-33l18 -1q14 -1 17 1t4 12q2 18 -1 40zM252 311v68h31q33 0 40 -6q7 -5 10.5 -28t-0.5 -46q-2 -14 -5.5 -17.5t-17.5 -5.5t-16.5 -4t-2.5 -11q0 -13 -10 -13t-20 -2l-9 -3v68zM297 359q-2 7 -13 7q-7 0 -9 -4t-4 -19q-6 -52 8 -55
q11 -2 16 6.5t5 30.5t-3 34zM173 376q16 5 49 0q12 -2 14.5 -5t2.5 -15q0 -14 -3.5 -15t-24.5 6t-28 0q-8 -7 -2.5 -14.5t27.5 -18.5q44 -23 30 -48q-5 -10 -20 -14q-15 -3 -38.5 -3t-23.5 3t2 17q2 9 6 10.5t24 1.5q17 0 23 3t1 8.5t-21 12.5q-25 11 -30 20q-9 12 -5 29
t17 22zM336 541q6 4 31 4q41 0 41 -26q0 -30 -18 -34q-14 -3 -14 -6.5t13 -5.5q24 -5 24 -39v-19l-36 -3q-38 -4 -44 -5t-7 7q0 8 2 57q3 67 8 70zM371 510q0 14 -2 17t-10 4q-9 1 -10.5 -2t-1.5 -19t1.5 -19t10.5 -2q8 1 10 4t2 17zM392 456q-3 4 -25 8l-23 3l-2 -14
q-3 -14 -2 -15q5 -5 37 -3q29 1 15 21zM53 541q6 4 30 4q42 0 42 -26q0 -30 -18 -34q-14 -3 -14 -6.5t13 -5.5q24 -5 24 -39v-19l-36 -3q-40 -4 -45 -5q-6 -1 -7 7q0 8 2 57q3 66 9 70zM88 510q0 14 -2 17t-10 4q-9 1 -10.5 -2t-1.5 -19t1.5 -19t10.5 -2q8 1 10 4t2 17z
M109 456q-3 4 -26 8l-22 3l-3 -14q-3 -13 -1 -15q5 -5 37 -3q28 1 15 21zM241 550q44 10 60 -2q12 -8 14 -58t-9 -59q-5 -5 -42 -3l-36 1l-4 21q-4 21 0 59q3 28 5 33.5t12 7.5zM283 495q-2 19 -4.5 22.5t-12.5 4.5q-14 2 -17.5 -6.5t-3.5 -40.5v-33l18 -1q14 -1 17 1t4 12
q2 18 -1 41zM138 520v34l12 -3l14 -4q1 -1 -3 -49q-4 -47 -2 -49t24 3q19 4 24 1t5 -20v-15h-34h-34l-3 34q-3 27 -3 68z" />
    <glyph glyph-name="Aacute" unicode="&#xc1;" horiz-adv-x="781" 
d="M307 426q3 8 10.5 7.5t11.5 -9.5q8 -17 32 -33l17 -12l29 1l30 1l19 19q29 29 38 12q2 -4 -1 -8.5t-19 -19.5q-19 -19 -33.5 -25t-37.5 -6q-43 0 -81 38q-21 21 -15 35zM426 532q4 11 17 11q12 0 18 -10q13 -19 -5 -34q-16 -14 -27.5 -1t-2.5 34zM323 540q2 0 5 1l2 1
q52 -23 30 -51q-6 -7 -20 -6q-24 3 -29 23q-2 9 2 19.5t10 12.5zM629 187q18 3 61 3q50 0 51 -4q2 -4 0 -9q-1 -5 -54 -5q-52 0 -59 -5t-7 -41t7 -41t59 -5q53 0 54 -4q2 -4 0 -9q-1 -5 -50 -5q-66 0 -81 11l-8 6v47v47l8 6q8 6 19 8zM373 186q8 8 19 -1q7 -7 44 -51
q8 -10 18.5 -22.5t15.5 -18.5l5 -6q3 0 44 50q46 55 55 53.5t9 -66.5v-59l-8 -1q-7 -2 -10 0t-3 45v13.5t-0.5 12t-1 9t-0.5 5.5l-1 2q-13 -13 -36 -41q-29 -35 -36.5 -42t-14.5 -5q-5 1 -42 45q-36 43 -38 43t-2 -43q0 -42 -3 -44q-4 -2 -11 0l-7 1v59q0 58 4 62zM65 187
q18 3 61 3q50 0 51 -4q2 -4 0 -9q-1 -5 -54 -5q-52 0 -59 -5t-7 -41t7 -41t59 -5q53 0 54 -4q2 -4 0 -9q-1 -5 -50 -5q-66 0 -81 11l-8 6v47v47l8 6q8 6 19 8zM198 191q2 1 9 1q6 -1 7 -28l1 -27h58h57v26q0 19 1.5 23t6.5 6q7 2 10 0t3 -64t-3 -64t-10 0q-6 2 -7 5.5
t-1 22.5v27h-57h-58v-27q0 -21 -2.5 -25.5t-11.5 -2.5l-7 1v62q0 63 4 64zM482 649q21 8 40 0q9 -3 13 -17l8 -28q4 -14 1 -147q-3 -108 -3 -161q0 -29 -6 -35q-5 -5 -16 -4q-11 2 -16 -2q-13 -11 -58 -15q-51 -4 -101 0q-89 8 -102 19q-9 8 -11 39t-1 158q1 161 6 166
q6 6 75 8q61 2 92 4q57 5 79 15zM515 608l-5 18h-12q-9 0 -18 -3q-49 -20 -189 -20h-35v-131v-130l25 -2q21 -2 127 0.5t108 4.5q1 1 3 123q1 119 -4 140zM514 302v16l-9 -1q-137 -6 -205 -4l-44 1v-17v-18l16 -4q20 -4 50 -6q35 -2 48 -5q15 -4 33 -2q3 0 12.5 1.5
t18.5 2.5t17 1q31 3 36 8q7 7 17 9q8 1 9 3.5t1 14.5z" />
    <glyph glyph-name="Acircumflex" unicode="&#xc2;" horiz-adv-x="963" 
d="M720 175q6 6 39 6q29 0 36.5 -3t7.5 -13q0 -16 -16 -17l-9 -1l-1 -41q-1 -29 -2.5 -35.5t-6.5 -10.5q-7 -5 -15 0q-6 3 -7 9t-2 37l-2 41l-10 1q-13 2 -17 10t5 17zM661 178q29 6 38 -3q10 -10 4.5 -18t-23.5 -9q-33 -3 -33 -29t33 -29q18 -2 23 -9.5t-5 -18.5
q-7 -7 -24 -5q-40 4 -54 36q-11 27 1.5 52.5t39.5 32.5zM517 178q5 3 38 3q27 0 36.5 -3t9.5 -13t-6 -13t-27 -4q-17 -1 -21 -2t-5 -6q-1 -4 2 -5t18 -1q30 0 30 -17q0 -16 -30 -16q-14 0 -17.5 -0.5t-2.5 -4.5q1 -5 26 -6q26 -1 29 -6q9 -11 -2 -22q-6 -6 -39 -6
q-32 0 -38 4t-6 59q0 56 5 59zM471 176q9 7 18 2q5 -3 5 -42q0 -34 -4 -48.5t-17 -21.5q-18 -11 -37 -8.5t-19 16.5q0 15 15 15q22 0 29 14q4 8 4 38q0 31 6 35zM315 178q5 3 38 3q23 0 29 -1.5t12 -7.5q8 -8 8 -20q0 -22 -10 -28q-4 -3 3 -9t9 -18t-2 -23q-7 -18 -52 -18
q-32 0 -36 6.5t-4 56.5q0 56 5 59zM372 144q-2 3 -14.5 4.5t-15.5 -1.5q-2 -2 -2 -9q0 -5 2.5 -6t13.5 -1q20 0 19 8q0 2 -3 5zM374 103q-1 4 -18 4q-12 0 -14 -1t-1 -7t2.5 -7t10.5 -2q10 -1 16 3t4 10zM215 177q17 6 37.5 -0.5t30.5 -21.5q24 -35 1 -70t-64 -26
q-29 7 -41.5 32t-2.5 51t39 35zM250 141q-24 15 -40 -6q-13 -16 2 -35q8 -9 20 -9q21 0 28 19.5t-10 30.5zM866 389q29 6 38 -3q10 -10 4.5 -18.5t-23.5 -9.5q-33 -3 -33 -29t33 -29q18 -2 23 -9.5t-5 -18.5q-6 -6 -25 -4q-39 4 -53 36q-11 27 1.5 52.5t39.5 32.5zM781 389
q9 5 19 0q6 -4 6 -60v-56l-7 -3q-7 -4 -15 0l-8 3v56q0 57 5 60zM678 386q6 6 39 6q29 0 36.5 -3t7.5 -13q0 -16 -16 -17l-9 -1l-1 -41q-1 -30 -2 -36t-6 -10q-8 -6 -16 -1q-6 3 -7 9t-2 37l-1 42l-11 1q-13 2 -17 10t5 17zM599 389q8 2 26 2q21 0 28.5 -6.5t0.5 -19.5
q-4 -6 -22 -6q-28 0 -28 -9q0 -5 20 -6q23 -1 31 -9.5t8 -28.5q0 -22 -12 -30.5t-43 -8.5q-18 0 -24.5 4t-6.5 14t5.5 12.5t24.5 2.5q23 0 27 4q2 10 -15 11q-31 0 -38 14q-9 17 -3.5 36.5t21.5 23.5zM503 388q9 7 17 2q4 -2 25 -53t20 -56q0 -7 -9 -11q-14 -8 -23 11
q-3 7 -6.5 8.5t-16.5 1.5t-16.5 -1.5t-7.5 -9.5q-5 -9 -10 -11t-13 1.5t-9 8.5q-2 5 20.5 55t28.5 54zM517 326q-4 18 -10 5q-4 -8 -3.5 -10.5t7.5 -2.5q4 0 5.5 0.5t1.5 2.5t-1 5zM379 386q6 6 38 6q29 0 37 -3t8 -13q0 -16 -17 -17l-9 -1v-41q-1 -29 -2.5 -35.5
t-6.5 -10.5q-7 -5 -15 -1q-6 3 -7.5 9.5t-2.5 36.5l-1 42l-11 1q-13 2 -16.5 10t5.5 17zM273 387q7 8 15.5 2t24.5 -30l17 -25l1 26q2 23 6.5 29.5t17.5 -0.5q6 -4 6 -58t-5 -59q-7 -8 -15.5 -2.5t-24.5 29.5l-16 25l-1 -24q-1 -25 -8 -29q-7 -5 -15 -1l-7 3v55q0 55 4 59z
M194 388q9 7 17 2q4 -2 25 -53t20 -56q0 -7 -9 -11q-14 -8 -23 11q-3 7 -6.5 8.5t-16.5 1.5t-16 -1.5t-7 -9.5q-4 -9 -11 -11q-5 -2 -12.5 1.5t-8.5 8.5q-2 5 20 55t28 54zM208 326q-4 18 -10 5q-4 -8 -3.5 -10.5t7.5 -2.5q4 0 5.5 0.5t1.5 2.5t-1 5zM69 389q5 3 38 3
q27 0 36.5 -3t9.5 -13t-6.5 -13.5t-26.5 -4.5q-25 -1 -25 -6q0 -6 21 -7q17 -1 22.5 -4t5.5 -12q0 -10 -6 -13.5t-24 -3.5h-20v-20q0 -19 -8 -22q-8 -4 -15 0l-7 3v56q0 57 5 60zM848 595q7 5 27 3t33 -9q19 -11 26 -35t-3 -45q-15 -34 -65 -34q-18 0 -21 7.5t-3 54.5v17
q0 27 0.5 32.5t5.5 8.5zM897 556q-5 6 -12.5 9t-10.5 0q-2 -2 -2 -28.5t2 -27.5q4 -2 14 3t13 10q9 19 -4 34zM740 596q4 3 38 3q28 0 37 -3t9 -12q0 -10 -6.5 -13.5t-26.5 -4.5q-25 -3 -26 -7q-1 -5 2 -6t18 -1q30 0 30 -16q0 -17 -30 -17q-14 0 -17.5 -0.5t-2.5 -4.5
q1 -5 26 -6q26 -1 29 -5q9 -11 -2 -22q-6 -6 -39 -6q-35 0 -39 3q-5 3 -5 59t5 59zM630 595q7 8 15.5 2t24.5 -30l16 -25l1 26q2 23 6.5 29t17.5 -1q6 -4 6 -57q0 -55 -5 -60q-8 -7 -15.5 -1.5t-24.5 29.5l-16 25l-1 -24q-1 -25 -8 -29q-8 -5 -15 -2l-7 4v55q0 54 5 59z
M582 596q10 5 19 0q6 -4 6 -59v-56l-7 -4q-8 -4 -15 0l-8 4v56q0 56 5 59zM482 596q4 3 38 3q28 0 37 -3t9 -12q0 -10 -6.5 -13.5t-26.5 -4.5q-25 -1 -25 -7q0 -5 20 -6q17 -1 23 -4t6 -12q0 -10 -6.5 -14t-23.5 -4h-21v-19q0 -20 -7 -23q-7 -4 -15 0l-8 4v56q0 55 6 59z
M375 596q5 3 38 3q28 0 37 -3t9 -12q0 -10 -6.5 -13.5t-26.5 -4.5q-25 -3 -26 -7q-1 -5 2 -6t18 -1q30 0 30 -16q0 -17 -30 -17q-14 0 -17.5 -0.5t-2.5 -4.5q1 -5 26 -6q26 -1 29 -5q9 -11 -2 -22q-6 -6 -39 -6q-34 0 -39 3t-5 59t5 59zM267 595q7 5 27 3t33 -9
q19 -11 25.5 -35t-3.5 -45q-15 -34 -65 -34q-18 0 -21 7.5t-3 54.5q0 39 1 46.5t6 11.5zM315 556q-5 6 -12.5 9t-10.5 0q-2 -2 -2 -28.5t2 -27.5q4 -2 14 3t13 10q9 19 -4 34zM155 595q7 8 15.5 2t24.5 -30l16 -25l1 26q2 23 6.5 29t17.5 -1q6 -4 6 -57q0 -55 -5 -60
q-8 -7 -15 -1.5t-24 29.5l-17 25l-1 -24q-1 -25 -8 -29q-8 -5 -15 -2l-7 4v55q0 54 5 59zM41 595q12 9 21 0q5 -5 5 -40q0 -36 6 -42q5 -5 14 -4q10 2 12.5 10.5t2.5 37.5q0 26 1.5 32t6.5 8q8 4 15 0l7 -3v-44q0 -36 -3 -48t-16 -20q-9 -6 -29 -5.5t-28 6.5
q-13 10 -16.5 21.5t-3.5 45.5q0 41 5 45z" />
  </font>
</defs>
</svg>
