<?xml version="1.0" standalone="no"?>
<!DOCTYPE svg PUBLIC "-//W3C//DTD SVG 1.1//EN" "http://www.w3.org/Graphics/SVG/1.1/DTD/svg11.dtd" >
<svg xmlns="http://www.w3.org/2000/svg" xmlns:xlink="http://www.w3.org/1999/xlink" version="1.1">
<metadata>
Created by FontForge 20190801 at Wed Nov 27 18:48:44 2019
 By Unknown
</metadata>
<defs>
<font id="Spongeboytt2-Regular" horiz-adv-x="250" >
  <font-face 
    font-family="Spongeboytt2"
    font-weight="400"
    font-stretch="normal"
    units-per-em="1000"
    panose-1="2 0 5 3 0 0 0 0 0 0"
    ascent="800"
    descent="-200"
    x-height="551"
    cap-height="764"
    bbox="33 -200 934 800"
    underline-thickness="50"
    underline-position="-150"
    unicode-range="U+000D-00A0"
  />
<missing-glyph horiz-adv-x="364" 
d="M33 0v666h265v-666h-265zM66 33h199v600h-199v-600z" />
    <glyph glyph-name=".notdef" horiz-adv-x="364" 
d="M33 0v666h265v-666h-265zM66 33h199v600h-199v-600z" />
    <glyph glyph-name=".null" 
 />
    <glyph glyph-name=".null" 
 />
    <glyph glyph-name="nonmarkingreturn" horiz-adv-x="333" 
 />
    <glyph glyph-name="CR" unicode="&#xd;" 
 />
    <glyph glyph-name="space" unicode=" " 
 />
    <glyph glyph-name="exclam" unicode="!" horiz-adv-x="266" 
d="M46 0q0 31 5 31q3 0 4 -1q1 0 11 -2.5t24.5 -5.5t27.5 -6q41 -8 54 -15.5t13 -22.5q0 -9 15 -43q16 -32 16 -35q0 -2 -88 -2h-89l3 35q4 38 4 67zM154 691q26 4 38 4q28 0 35 -7q1 -1 1 -8q0 -20 -9 -74q-21 -130 -39 -357q-9 -119 -12 -122q-4 -4 -50 -4q-52 0 -57 5
q-2 2 -2 12q0 22 5 54q8 61 8 112q0 86 -26 257q-10 60 -10 83q0 9 2 11q7 5 50.5 17.5t65.5 16.5z" />
    <glyph glyph-name="quotedbl" unicode="&#x22;" horiz-adv-x="421" 
d="M249 720q3 8 59 8q50 0 60.5 -6.5t14.5 -37.5q2 -16 2 -24q0 -31 -13 -46q-7 -9 -25 -59q-43 -121 -49 -121q-7 0 -18 102q-7 73 -19 91q-18 28 -18 63q0 18 6 30zM38 720q3 7 21 7q3 0 45 -2q63 -4 65 -6t4 -38q0 -4 0.5 -10.5t0.5 -8.5q0 -22 -14 -49q-22 -50 -35 -91
q-28 -80 -36 -80q-1 0 -3 3q-3 5 -12 84q-9 77 -24 109t-15 61q0 12 3 21z" />
    <glyph glyph-name="percent" unicode="%" horiz-adv-x="748" 
d="M619 191q-17 25 -48 25q-33 0 -47 -29q-10 -20 -10 -32q0 -23 20.5 -41t43.5 -18q10 0 17 4q14 7 23 25t9 37q0 18 -8 29zM518 276q29 8 53 8q50 0 87.5 -26t46.5 -69q4 -16 4 -37q0 -56 -31 -101q-10 -14 -42.5 -29.5t-52.5 -15.5q-55 0 -102 42q-28 25 -36 41.5
t-8 49.5q0 112 81 137zM241 526q-1 28 -14.5 40t-43.5 12q-23 0 -37 -16q-14 -17 -14 -39t13 -36q8 -10 15 -12t27 -2t27 2t15 12q12 15 12 39zM150 671q12 3 32 3q51 0 75 -11q14 -8 30 -26.5t22 -35.5q7 -18 7 -52q0 -50 -12 -72q-19 -35 -56 -57.5t-80 -25.5
q-2 0 -7 -0.5t-8 -0.5q-56 0 -85.5 31.5t-29.5 91.5q0 132 112 155zM491 647q17 29 25 33q3 1 8 1q10 0 61 -19l52 -20l-46 -61q-155 -204 -332 -538q-3 -5 -6.5 -12t-5.5 -10.5t-4.5 -8t-4.5 -6t-4.5 -4t-5.5 -3t-6 -0.5q-10 0 -69 19q-55 17 -55 26q0 10 44 67
q190 243 349 536z" />
    <glyph glyph-name="quotesingle" unicode="'" horiz-adv-x="215" 
d="M37 720q1 3 2.5 7t2 5.5t2 4t3 3t3.5 1.5t6 1.5t8 0.5h11h28q54 0 64 -7t12 -50q0 -4 0.5 -11t0.5 -9q0 -21 -11 -35q-9 -12 -36 -87q-35 -98 -39 -98q-1 0 -3 2q-5 5 -16 92t-22 103q-17 26 -17 66q0 8 1 11z" />
    <glyph glyph-name="plus" unicode="+" horiz-adv-x="557" 
d="M220 484l-4 79h125q-2 -26 -4 -80t-4 -80l26 2q12 2 93 6l69 3v-125l-76 3q-84 4 -94 6l-18 3q1 -32 4 -96t4 -96h-136l3 17q3 20 8.5 82t5.5 82l-1 6q-6 1 -15 1q-27 0 -72 -3q-15 0 -42.5 -1.5t-36.5 -1.5q-11 0 -12 1q-7 3 -7 64q0 63 4 64h4q40 0 159 -14l20 -2z" />
    <glyph glyph-name="comma" unicode="," horiz-adv-x="280" 
d="M39 134l-3 11h174l7 -16q26 -58 26 -97q0 -44 -37 -125q-15 -31 -22 -40.5t-22 -17.5l-23 -13l3 17q8 38 8 60q0 36 -21 60q-14 17 -45 23l-30 6l-6 60q-9 70 -9 72z" />
    <glyph glyph-name="hyphen" unicode="-" horiz-adv-x="348" 
d="M35 463q0 5 45.5 7.5t106.5 3.5h61l50 1v-34q0 -31 8 -79q7 -42 5 -46l-130 -4l-128 -3l-9 74q-9 74 -9 80z" />
    <glyph glyph-name="period" unicode="." horiz-adv-x="295" 
d="M132 73q20 1 47 2l40.5 1.5t15.5 0.5h1q6 0 7 -49q2 -58 9 -85l7 -35h-26q-19 0 -101 -4q-46 -3 -70 -3h-7q-2 1 -11 76t-9 88q0 2 97 8z" />
    <glyph glyph-name="slash" unicode="/" horiz-adv-x="537" 
d="M331 721q0 7 6 7q10 0 74 -21l39 -13t32 -11t13 -4q1 0 1 -3q0 -8 -15 -33q-16 -26 -28.5 -53.5t-75.5 -178.5q-166 -393 -177 -484l-4 -28l-78 27q-79 28 -79 36q0 9 19 41q64 101 165.5 358.5t105.5 327.5q0 5 0.5 17t1.5 15z" />
    <glyph glyph-name="zero" unicode="0" horiz-adv-x="595" 
d="M333 635q-13 8 -58 8q-12 0 -26 -2q-40 -8 -50 -35q-5 -11 -5 -76q0 -81 7 -143q9 -82 27 -176.5t29 -115.5q24 -48 64 -48q17 0 29 13q37 42 37 208q0 118 -21 267q-13 89 -33 100zM248 698q12 1 36 1q140 0 190 -59q50 -58 75 -237q10 -61 10 -115q0 -86 -33 -152
q-26 -53 -77 -91.5t-110 -49.5q-28 -4 -50 -4q-71 0 -118 15q-30 11 -57.5 29.5t-37.5 34.5q-18 31 -30 105.5t-12 165.5q0 7 0.5 20t0.5 19q6 210 53 273q27 36 160 45z" />
    <glyph glyph-name="one" unicode="1" horiz-adv-x="315" 
d="M152 684q26 3 54.5 6t45 4.5t18.5 1.5h2q7 0 7 -12q0 -2 -2 -24q-13 -144 -28 -575l-3 -94h-105q-105 0 -105 3t20 143q32 217 32 310q-1 48 -6 68.5t-21 33.5q-12 11 -15 19.5t-5 43.5q-1 10 -1 29q0 21 2 25q4 5 110 18z" />
    <glyph glyph-name="two" unicode="2" horiz-adv-x="690" 
d="M223 710q21 5 61 5q57 0 114 -11.5t75 -27.5q7 -7 21 -28t30 -60t16 -71q0 -13 -125 -127q-29 -27 -65.5 -60t-57.5 -52.5t-26 -24.5l-20 -19l26 -12q31 -14 95 -14q114 0 249 40q24 7 31 7q3 0 3 -1q0 -7 -26 -90t-29 -86q-4 -4 -240 -37t-258 -33h-1q-2 2 -6 102
l-2 100l149 152q92 94 117.5 121.5t25.5 34.5q0 3 -4 5q-29 19 -97 19q-81 0 -193 -25q-40 -9 -46 -9h-1q-1 1 14 39q13 30 28 82q13 44 15 46t52 16t75 19z" />
    <glyph glyph-name="three" unicode="3" horiz-adv-x="626" 
d="M272 735q2 0 16 0.5t26 0.5q10 0 32.5 -0.5t33.5 -0.5q89 -2 124.5 -10.5t44.5 -29.5q6 -15 6 -60q0 -55 -8 -79q-4 -14 -8.5 -17t-18.5 -5q-55 -5 -92 -21q-24 -10 -47.5 -24t-23.5 -18q0 -5 38 -16q86 -28 131 -72t57 -112q3 -18 3 -37q0 -88 -64 -147
q-24 -22 -49.5 -34.5t-73.5 -24.5q-35 -8 -132 -8q-67 0 -90 5l-23 5l-51 92q-48 89 -48 94h2q14 0 41 -6q85 -17 143 -17q103 0 129 45q10 17 10 54t-10 54q-16 27 -72 47t-114 20q-23 0 -23 5q0 7 40.5 40.5t83.5 62.5q61 42 110 63q50 24 50 27t-30 3q-23 0 -36 -1
q-58 -2 -111 -15t-147 -47q-81 -27 -82 -27t1 6.5t6 17t9 21.5q15 40 29 92q11 44 21 51q6 3 67 11.5t100 11.5z" />
    <glyph glyph-name="four" unicode="4" horiz-adv-x="660" 
d="M148 736q27 5 56.5 10.5t47.5 8.5t19 3h1q9 0 9 -20q0 -45 -53 -209q-51 -156 -51 -205q0 -17 2 -21.5t11 -7.5q15 -5 35 -5q60 0 86 19q17 15 33 195q16 182 23 192q1 2 22 2q95 0 137 -14l27 -8v-24q0 -29 -38 -253l-17 -100l61 4l62 3l-2 -35q-1 -27 -4 -32.5
t-17 -12.5t-64 -17q-46 -9 -52 -16t-6 -79v-70l-110 -4q-116 -4 -126 -6l-17 -3v27q0 33 18 93t18 62l-1 2q0 1 -4 1q-5 0 -29 -4q-35 -6 -81 -6q-43 0 -58 6q-29 12 -40 84t-11 249v170z" />
    <glyph glyph-name="five" unicode="5" horiz-adv-x="668" 
d="M116 728q26 2 59 2q182 0 287 -16l20 -3l-4 -42q-4 -47 -12 -106.5t-11 -63.5h-1q-13 0 -75 32q-117 57 -184 62l-41 2l3 -48q4 -55 10 -77l6 -28l88 -3q184 -8 283 -58q85 -41 85 -134v-11q-5 -78 -63 -119.5t-192 -63.5q-36 -6 -118.5 -13.5t-113.5 -7.5q-4 0 -50.5 73
t-52.5 88q0 1 -0.5 1t-0.5 1q0 2 4 2q3 0 42 -11q102 -32 185 -32q46 0 68 11q22 10 29.5 25.5t7.5 46.5q0 23 -2 30t-12 15q-19 17 -50 21.5t-123 4.5h-115v206q2 206 4 208q1 2 40 6z" />
    <glyph glyph-name="six" unicode="6" horiz-adv-x="650" 
d="M343 413q-50 5 -69 5q-21 0 -54 -5q-29 -4 -38 -8.5t-14 -18.5q-9 -21 -9 -132q0 -43 2 -55q2 -19 5.5 -25.5t13.5 -13.5q30 -18 110 -34q28 -5 41 -5q25 0 33 15q5 10 18 74t21 123q5 34 5 53q0 12 -4 16q-8 6 -61 11zM343 752q2 2 23 2h21l-47 -46q-71 -68 -84 -140
q-2 -16 -2 -29q0 -33 5 -33l5 2q6 2 17 5.5t20 6.5q48 17 109 17q83 0 149 -33q39 -19 47 -38t8 -86q0 -70 -12 -126q-20 -94 -44 -141.5t-59 -61.5q-43 -18 -146 -18q-25 0 -38 1q-78 4 -112 14.5t-65 41.5q-63 63 -91 166q-11 42 -11 126q0 93 13 147q25 101 79 160
q31 34 50.5 41.5t85.5 12.5q77 7 79 9z" />
    <glyph glyph-name="seven" unicode="7" horiz-adv-x="589" 
d="M186 781q16 2 60 2q86 0 189 -9.5t113 -19.5q1 -2 1 -3q0 -42 -164 -458l-93 -237l-65 3q-54 2 -98.5 11t-44.5 19q0 15 71.5 121t155 238.5t104.5 201.5l4 12l-39 -3q-107 -9 -288 -108q-39 -22 -48 -22h-1q-3 3 -5 122l-2 117l66 6q13 1 34 3t33.5 3t16.5 1z" />
    <glyph glyph-name="eight" unicode="8" horiz-adv-x="707" 
d="M383 297q-47 5 -89 5q-27 0 -40 -1q-41 -4 -50 -15q-11 -13 -18.5 -53t-7.5 -75q0 -28 5 -37q7 -13 32.5 -18.5t92.5 -7.5l80 -2l9 12q10 15 19 57t9 71q0 33 -9 47t-33 17zM475 628q-7 9 -58 10h-15q-71 0 -96 -10q-19 -9 -19 -62q0 -17 1 -28q5 -96 21 -117
q6 -10 77 -12h28q44 0 58.5 7t20.5 30q4 13 4 42q0 40 -6.5 84t-15.5 56zM257 715q32 6 76 6q69 0 113 -13q35 -11 66 -30q57 -34 80.5 -67t23.5 -77q0 -39 -16.5 -67.5t-58.5 -61.5q-19 -16 -16 -21q4 -6 44 -22q42 -17 60 -30.5t28 -34.5q10 -20 10 -48q0 -74 -66 -153
t-150 -97q-33 -8 -100 -8q-74 0 -113 10q-66 18 -108 56q-49 46 -63 99q-5 22 -5 38q0 80 93 128q33 16 33 22q0 7 -25 12q-68 16 -103 55q-13 15 -17.5 24.5t-4.5 26.5q0 15 1 26q4 82 65.5 146t152.5 81z" />
    <glyph glyph-name="nine" unicode="9" horiz-adv-x="651" 
d="M386 667q-11 8 -26 8q-42 0 -92 -61q-35 -42 -42.5 -68.5t-8.5 -114.5q0 -11 -0.5 -29t-0.5 -24q0 -50 9 -68q5 -11 9 -14t13 -3h6q44 2 119 77q95 92 95 158q0 8 -1 12q-5 28 -31.5 70t-48.5 57zM221 736q36 7 93 7q125 0 181 -25q30 -14 46.5 -36t34.5 -74
q39 -113 39 -231q0 -91 -23.5 -167.5t-67.5 -120.5q-32 -32 -85.5 -55t-96.5 -23q-16 0 -38 25q-22 26 -34 48l-13 24l36 21q48 28 86 70.5t38 66.5q0 9 -6 4l-8 -7q-50 -47 -167 -47h-4q-53 0 -103 18t-76 45q-11 11 -13 20.5t-4 49.5q0 5 -0.5 13t-0.5 13q0 74 26 176
q27 103 58 137q32 34 102 48z" />
    <glyph glyph-name="colon" unicode=":" horiz-adv-x="275" 
d="M232 47l-168 -18q-1 0 0.5 15t3.5 37q1 13 5 92v39h17q18 0 68 -9l51 -9l1 -31q1 -23 8.5 -57.5t14.5 -48.5q6 -10 -1 -10zM37 484q0 9 13.5 37.5t20.5 28.5h1q6 -3 62 -3h56l6 -50q6 -54 14 -73q7 -23 4 -26t-69 -11.5t-82 -8.5h-3q-2 2 -12.5 51t-10.5 55z" />
    <glyph glyph-name="semicolon" unicode=";" horiz-adv-x="268" 
d="M51 175l-2 12h74h17q50 0 59.5 -6.5t21.5 -44.5q9 -27 9 -64q0 -71 -29 -140q-5 -12 -20.5 -25.5t-23.5 -13.5q-2 0 -2 18q0 16 1 25q0 4 0.5 11t0.5 10q0 42 -13.5 59t-47.5 20l-25 2l-6 32q-2 12 -8 62q-4 37 -6 43zM101 554q15 2 33 4t31.5 3t15.5 1l16 1l3 -45
q4 -45 11 -67q8 -22 1 -25q-85 -23 -123 -41l-38 -18l-3 32q-3 26 -7 90l-4 57z" />
    <glyph glyph-name="question" unicode="?" horiz-adv-x="699" 
d="M309 117q75 7 80 7q11 0 14 -3t3 -10v-11q0 -27 7 -53q8 -29 5 -30q-2 -2 -67 -8t-87 -6h-6q-4 2 -13 43t-9 57q0 4 1 5q4 4 72 9zM234 759q43 9 95 9q93 0 179 -27q29 -9 38.5 -15t21.5 -23q36 -50 63 -103.5t31 -83.5q1 -7 1 -19q0 -96 -134 -122q-93 -17 -126 -40
t-47 -79q-10 -38 -27 -61l-19 -24l-17 19q-19 23 -35 57q-22 43 -22 76q0 21 9 41q11 26 38.5 37.5t94.5 19.5q82 9 102 20t20 50v7q-1 49 -26.5 91.5t-65.5 58.5q-19 8 -54 8t-57 -8q-42 -15 -77 -51.5t-52 -80.5q-9 -27 -17 -27h-3q-50 19 -93 126l-17 42l12 10
q93 73 184 92z" />
    <glyph glyph-name="at" unicode="@" horiz-adv-x="881" 
d="M474 452q-9 22 -25 22q-7 0 -32 -7t-39 -26q-14 -17 -14 -50v-21q1 -45 10.5 -77.5t24.5 -39.5q4 -2 14 -2q15 0 33 7.5t25 17.5q11 13 11 60v25q-2 76 -8 91zM356 739q0 4 35 4q95 0 140 -13q76 -22 140 -85q55 -53 81 -134q21 -68 21 -131q0 -97 -42 -145t-110 -48
q-54 0 -70 34l-8 17l-8 -17q-33 -67 -136 -74q-8 -1 -22 -1q-40 0 -63.5 16t-43.5 56q-27 52 -27 130q0 40 8 65q24 83 152 112q25 6 42 6q27 0 53 -18q13 -8 19 -8q9 0 9 15q0 1 -0.5 5t-0.5 6q-1 9 -1 11.5t3.5 4t10.5 -1.5q16 -3 38 -16.5t22 -19.5q0 -12 -10 -67
q-9 -54 -9 -90q0 -78 45 -78q13 0 29.5 19t22.5 41q4 12 4 33q0 56 -20 109q-15 40 -52.5 72.5t-88.5 50.5q-49 18 -102 18q-11 0 -17 -2q-1 -1 -41 -10q-32 -6 -70.5 -25.5t-60.5 -41.5q-31 -31 -44 -68.5t-14 -97.5q0 -138 85 -224q78 -79 212 -79h22q64 2 67 7t25 12
q30 10 70 30q49 24 80 57t66 46q29 11 38 11q6 0 6 -7q0 -10 -21 -46.5t-41 -62.5q-32 -40 -79.5 -73.5t-88.5 -46.5q-23 -8 -28 -12q-8 -6 -91 -8h-26q-275 0 -365 155q-15 25 -32 75t-25 89t-8 102t8 92q35 141 158 202q33 16 76 29t64 13q14 0 14 6z" />
    <glyph glyph-name="A" unicode="A" horiz-adv-x="666" 
d="M452 378l-27 146l-26 1h-8q-25 0 -38 -3l-21 -3l-19 -148q-17 -124 -17 -149q0 -4 8 -4q27 0 100.5 5t73.5 8q0 4 -26 147zM304 677q137 5 187 5q19 0 20 -1q3 -2 60 -387.5t57 -402.5q0 -3 -88 -6.5t-122 -3.5h-7q-4 1 -4 97v95h-189l-4 -19q-3 -15 -3 -82q0 -63 -8 -66
t-107 -3q-55 0 -55 2t30.5 116.5t67.5 253.5t49 186l4 14q-17 -1 -50.5 -3t-49.5 -3l3 100q4 100 5 100q0 1 204 8z" />
    <glyph glyph-name="B" unicode="B" horiz-adv-x="599" 
d="M300 284q-20 2 -60.5 4.5t-52.5 3.5l-45 2l-3 -16q-3 -14 -3 -81v-66l16 -3q13 -3 54 -3q149 0 219 14q1 0 3 1q13 7 14 14q0 5 -7 47q-10 60 -48 72q-12 5 -87 11zM284 682q-8 5 -62 5h-56l3 -43q3 -36 3 -121v-79h44h37.5t24 5t15.5 9.5t7 21.5t4 31.5v48.5
q0 109 -20 122zM159 766q79 6 144 6q90 0 126 -11q29 -9 51 -31t31 -52q9 -29 9 -78q0 -107 -27 -149q-10 -14 -36 -26q-21 -10 -72 -23.5t-65 -13.5q-8 0 -8 -2q0 -4 62 -20q52 -13 100 -36l43 -20l13 -40q12 -36 22.5 -114.5t10.5 -125.5q0 -29 -5 -29q-39 0 -351 -34
q-155 -16 -171 -16h-1v9q0 69 7 432.5t8 364.5l14 1q13 2 42.5 4t52.5 4z" />
    <glyph glyph-name="C" unicode="C" horiz-adv-x="641" 
d="M87 794q13 5 243 5l228 1l9 -58q8 -52 12 -112l3 -56l-59 -4q-49 -3 -110 -3q-49 0 -49 6v1l1 2q11 32 14 119q0 23 -2 28.5t-12 9.5q-27 9 -91 9q-20 0 -27 -1q-21 -3 -25 -11.5t-9 -61.5q-6 -63 -6 -146q0 -195 24 -309q3 -16 28 -26t60 -11h11q27 0 31 4t6 64
q2 61 3 62h11q13 0 107 -2l116 -4l2 -24v-7q0 -30 -8 -87t-16 -81l-10 -29l-70 2q-136 3 -273.5 27t-152.5 48q-17 26 -28 122.5t-11 202.5q0 76 5 121q1 6 4 44t5.5 54t7.5 43.5t12 41t16 16.5z" />
    <glyph glyph-name="D" unicode="D" horiz-adv-x="628" 
d="M348 585q-46 7 -70 7q-13 0 -13 -3t-11 -263q-6 -171 -6 -219q0 -41 3 -44q4 -3 34 -3q92 0 125 12q16 5 21 10t9 17q13 42 22.5 142.5t9.5 189.5q0 84 -6.5 103.5t-38.5 31.5t-79 19zM53 750q12 2 58 2q10 0 34.5 -0.5t38.5 -0.5q107 -1 176 -13q44 -7 109.5 -24.5
t71.5 -22.5q4 -4 17 -69.5t20 -119.5q18 -151 18 -308q0 -153 -16 -170q-7 -8 -69.5 -26.5t-117.5 -28.5q-121 -22 -287 -32l-58 -4l-3 70q-2 39 -6 407l-4 338z" />
    <glyph glyph-name="E" unicode="E" horiz-adv-x="556" 
d="M245 781q43 0 105 0.5t95 1t41 0.5l33 1l-3 -25q-1 -7 -3 -26.5t-3 -26.5l-4 -27l-91 4q-24 1 -88.5 3t-89.5 3l-87 4v-105h232l6 -43q2 -13 5 -35t4 -27l3 -20h-178v-43q0 -36 4 -122l3 -78h258v-12l3 -42q3 -41 6 -89.5t3 -65.5l-1 -9q-2 -2 -197.5 -12.5t-232.5 -10.5
h-5l-11 342q-9 334 -13 400l-2 58z" />
    <glyph glyph-name="F" unicode="F" horiz-adv-x="549" 
d="M36 576l-1 224h479l-2 -53q-1 -11 -2 -31t-2 -36t-2 -25l-3 -37l-32 3q-15 2 -121 6l-90 4v-106h72q74 0 81 -3q8 -3 8 -32q0 -19 -3 -46l-4 -27h-226v-357l-56 -3q-63 -4 -72 -6l-16 -2l-3 151q-3 122 -5 376z" />
    <glyph glyph-name="G" unicode="G" horiz-adv-x="630" 
d="M80 702q88 22 287 25h28q61 0 83.5 -3.5t28.5 -13.5q4 -8 4 -121t-4 -117h-2q-2 0 -4.5 -0.5t-5.5 -0.5q-7 0 -37 2l-46 2v38q0 40 -5 48q-11 21 -77 23h-16q-33 0 -42.5 -5.5t-13.5 -26.5q-3 -21 -3 -203q0 -246 4 -286q3 -29 5.5 -35t14.5 -10q27 -10 103 -10
q33 0 37 4q8 8 8 81q0 39 -4 44q-4 7 -25 7h-9h-9q-19 0 -22 7q-6 15 -6 75q0 24 2 40l4 24l111 9q20 1 48.5 3.5t43 3.5t18.5 1h2q3 -3 8 -156.5t5 -209.5v-13q-13 -13 -187 -13q-40 0 -59 1q-245 6 -299 49q-8 6 -10 15.5t-2 46.5v41q2 94 9 216q18 265 18 364q0 21 -1 25
l-4 23z" />
    <glyph glyph-name="H" unicode="H" horiz-adv-x="620" 
d="M50 768l3 32h186l-1 -194v-88q0 -108 1 -109t102 -5l100 -3v399h114v-17q0 -28 15 -377t15 -372q0 -5 -70 -9l-68 -3l-3 79q-3 66 -3 115v35h-131q1 -39 3 -117.5t3 -117.5l-105 4q-122 4 -140 6l-36 4l4 111q1 27 1.5 83.5t1.5 138.5t2 131q4 254 6 274z" />
    <glyph glyph-name="I" unicode="I" horiz-adv-x="278" 
d="M61 504l1 17l25 -3q34 -5 67 -8q45 -6 46 -7q2 -1 22.5 -251.5t20.5 -271.5q0 -4 -2.5 -5.5t-11 -2.5t-27.5 -1q-33 0 -59 1q-103 2 -103 4zM57 735q22 29 30 29q12 0 83.5 -13t71.5 -17q0 -14 -7 -80l-10 -79l-84 -2l-84 -1l-3 19l-11 55q-6 28 -6 43q0 19 20 46z" />
    <glyph glyph-name="J" unicode="J" horiz-adv-x="620" 
d="M164 679v121h202q202 0 203 -9q0 -12 4.5 -187.5t9 -345.5t4.5 -171q-5 -7 -167 -18q-47 -4 -114 -4q-110 0 -165 10q-36 7 -48 15.5t-19 32.5q-28 97 -33 214l-3 63l28 3q28 3 111 8.5t102 5.5h20l-1 -112q-1 -29 -1 -66q0 -48 8 -53q6 -4 41.5 -11.5t48.5 -7.5l4 1
q2 2 27 271.5t25 285.5q0 1 -1 1q-4 0 -54 -11q-95 -24 -186 -32z" />
    <glyph glyph-name="K" unicode="K" horiz-adv-x="685" 
d="M360 531q15 45 45 134.5t45 134.5h196l-25 -40q-155 -246 -193 -309t-38 -73q0 -1 2 -5q0 -1 107 -153.5t108 -153.5q2 -3 -11 -4q-21 -3 -101 -3h-116q-62 184 -93 275l-46 -3q-62 -5 -68 -6l-22 -2q1 -41 3 -121.5t3 -120.5l-19 -5q-86 -22 -98 -22h-1q-4 4 -4 559
q0 146 1 147t110 5l108 3v-114q0 -114 6 -115q5 -3 54 -5z" />
    <glyph glyph-name="L" unicode="L" horiz-adv-x="516" 
d="M38 680q-1 31 -1 71q0 49 7 49q6 0 87 -17l79 -16l-3 -26q-5 -47 -17.5 -228.5t-12.5 -205.5q0 -2 0.5 -4.5t0.5 -6.5q0 -11 -4 -61q-4 -58 -4 -62q0 -3 1 -3q2 0 7.5 1t16 3.5t18.5 3.5q242 56 258 56h1q2 -2 6 -119l3 -117l-152 -3q-126 -3 -210 -3h-58l-3 71
q-1 21 -5 217.5t-9 234.5q-4 32 -6 165z" />
    <glyph glyph-name="M" unicode="M" horiz-adv-x="719" 
d="M37 635v165h124q85 0 105 -1.5t22 -7.5q0 -1 6 -28.5t16.5 -76t20.5 -94.5q28 -132 35.5 -161.5t15.5 -29.5h3q6 0 13.5 31.5t50.5 244.5l26 123h94q94 0 95 -1q3 -10 19 -603l3 -141l-43 -3q-36 -3 -94 -3q-33 0 -42 1.5t-9 7.5q0 2 2 25t5.5 67.5t6.5 83.5l13 169
l-13 13q-13 13 -16 5q-1 -2 -44 -165q-10 -37 -22 -80.5t-19 -69.5t-8 -31q-4 -16 -8.5 -19.5t-19.5 -5.5q-20 -1 -24 8q-2 6 -52 252q-62 303 -68 313q-1 3 -3 3l-4 -2q-8 -4 -11 -7t-5.5 -15t-2.5 -36q0 -34 8 -205q11 -249 14 -270l3 -27h-190l14 250q13 233 13 273
q0 9 -0.5 15.5t-1 10t-2 6t-2 3.5t-4 2.5t-4.5 1.5z" />
    <glyph glyph-name="N" unicode="N" horiz-adv-x="662" 
d="M94 786q10 0 47.5 1t51.5 2l43 1l24 -51q19 -40 79 -173t73 -160l17 -33l-3 206l-4 206l101 -2q102 -2 104 -4v-7q0 -23 -3 -65q-2 -29 -23 -381q-18 -309 -20 -311t-77 -9.5t-88 -7.5h-2q-2 2 -110 284.5t-110 284.5q-5 8 -5 -281v-289h-127l6 216q2 58 5 166.5t4 131.5
l3 81l-19 2l-19 1l-2 95l-1 94z" />
    <glyph glyph-name="O" unicode="O" horiz-adv-x="631" 
d="M351 534q-22 11 -62 14q-11 1 -29 1q-36 0 -50 -12q-15 -13 -25.5 -108.5t-11.5 -216.5l-1 -119l21 -8q20 -7 114 -7q51 0 65 3q13 3 19 13q7 14 7 112q0 223 -17 291q-5 17 -9.5 23.5t-20.5 13.5zM88 704q78 32 257 32q78 0 129 -9q41 -7 57 -24.5t30 -68.5
q37 -138 37 -338q0 -190 -34 -265q-9 -21 -25.5 -29.5t-60.5 -14.5q-92 -13 -203 -13q-117 0 -166 15q-20 6 -35.5 19.5t-19.5 28.5q-18 60 -18 263q0 189 17 305q9 60 15 76.5t20 22.5z" />
    <glyph glyph-name="P" unicode="P" horiz-adv-x="553" 
d="M268 741q-17 10 -60 10q-3 0 -10.5 -0.5t-11.5 -0.5l-33 -2v-97q0 -120 -3 -225l-4 -127l33 -3q7 -1 22 -1q52 0 75 20q9 8 11.5 20.5t6.5 63.5q2 21 2 83q0 203 -13 238q-5 15 -15 21zM34 32v768h429l16 -18q41 -47 41 -241q0 -42 -1 -66q-3 -127 -15.5 -178.5
t-43.5 -64.5q-18 -7 -72 -15t-88 -8h-33v-164l-71 -4q-114 -6 -116 -6z" />
    <glyph glyph-name="Q" unicode="Q" horiz-adv-x="652" 
d="M414 575q-8 22 -71 22q-62 0 -69 -14q-10 -19 -18 -123.5t-9 -216.5v-47q0 -60 10 -74q11 -15 32.5 -20.5t67.5 -5.5h15q37 0 47.5 6.5t15.5 29.5q4 21 4 90q0 99 -7.5 213.5t-17.5 139.5zM243 790q23 2 69 2q141 0 171 -24q20 -16 35 -129q9 -77 9 -284q0 -123 -5 -166
l-6 -57l16 -22q3 -5 21 -29t28 -37q32 -41 32 -47q0 -5 -14 -5q-27 0 -84 20l-63 21l-23 -10q-62 -26 -223 -28h-33q-65 0 -89 9q-2 1 -5 2q-27 9 -33 22q-8 17 -10 127v9v9v53q0 171 20 367q11 104 19 132t28 39q36 19 140 26z" />
    <glyph glyph-name="R" unicode="R" horiz-adv-x="621" 
d="M382 650q-13 4 -48 4q-29 0 -58 -3l-20 -2v-123q0 -133 -3 -178l-4 -56l75 3q75 3 80 10q18 18 18 137q0 62 -5 121.5t-11 71.5q-6 10 -24 15zM86 733q29 3 83 3q148 0 205 -11q88 -18 119 -65t36 -171q1 -14 1 -42q0 -159 -51 -210l-20 -20q60 -162 123 -321l-22 -3
q-28 -5 -118 -8l-97 -3l-5 28q-1 3 -5.5 27t-11 54.5t-11.5 57.5l-23 111l-63 2l-63 1v-227l-24 -3q-19 -3 -63 -3h-39l4 30q11 99 11 389q0 241 -8 321q-4 44 -4 50t1 6q1 1 45 7z" />
    <glyph glyph-name="S" unicode="S" horiz-adv-x="581" 
d="M177 795q15 3 62 3q112 0 160 -8q27 -4 80 -17l46 -11l-3 -108q-4 -109 -7 -111h-1q-7 0 -47 19q-137 62 -220 62q-30 0 -43 -8q-37 -19 -41 -62q0 -3 -0.5 -7t-0.5 -6q0 -14 18 -31q20 -20 123 -65q120 -55 169 -92.5t65 -88.5q9 -29 9 -64q0 -42 -12 -69
q-15 -34 -49.5 -60t-72.5 -31q-17 -3 -169.5 -9.5t-194.5 -6.5h-8v11q0 12 2 100l3 109l14 -2q4 -1 80 -17q65 -13 101 -13q4 0 14.5 0.5t16.5 0.5q65 2 86 14q33 18 33 38q0 13 -14 30q-22 26 -121 63q-102 38 -146 70t-61 81q-12 34 -12 105q0 48 2 63t10 32q18 37 48 57
t81 29z" />
    <glyph glyph-name="T" unicode="T" horiz-adv-x="591" 
d="M39 613l-2 125h22q24 0 256 -10.5t233 -11.5l4 -86l4 -84l-61 3q-19 1 -65.5 3.5t-58.5 3.5l-64 3l3 -43q4 -47 13.5 -260.5t9.5 -241.5v-32l-85 -11q-72 -9 -86 -9h-3q-1 3 -1 8q0 31 13 258t13 258l-1 8h-4q-11 0 -70 -3.5t-65 -3.5h-2q-1 1 -3 126z" />
    <glyph glyph-name="U" unicode="U" horiz-adv-x="648" 
d="M391 507l-3 293h227l-4 -112q-1 -32 -3.5 -154t-3.5 -181q-3 -159 -5.5 -194t-10.5 -49q-21 -36 -85.5 -57t-148.5 -21q-89 0 -173 24q-60 17 -84 35.5t-34 53.5q-6 18 -11 163q-7 184 -11 295q-4 136 -4 146v7h1q8 0 70.5 -12t92.5 -19l13 -3l-4 -233q-2 -132 -2 -152
q0 -69 3.5 -95t12.5 -44q14 -29 82 -29q40 1 57.5 6.5t24.5 21.5q4 9 4 111q0 111 -1 199z" />
    <glyph glyph-name="V" unicode="V" horiz-adv-x="625" 
d="M155 797q5 1 27 1h14l28 -1l7 -51q59 -443 111 -559l10 -24l7 24q14 44 82 408q8 42 17 91t13.5 74.5t5.5 28.5q2 8 9.5 9.5t47.5 1.5q53 0 53 -6l-1 -1v-2q-1 -3 -37 -184q-42 -218 -81.5 -396.5t-48.5 -192.5q-1 -3 -21 -3q-14 0 -101 5q-26 2 -58 4t-47 4l-15 1
q-11 11 -70.5 328t-63.5 384l-3 48l51 3q58 4 64 5z" />
    <glyph glyph-name="W" unicode="W" horiz-adv-x="812" 
d="M62 719q6 0 15.5 0.5t22.5 1.5t19 1l34 1l4 -166q4 -216 24 -369q4 -38 10.5 -45.5t31.5 -7.5q19 0 25.5 11.5t10.5 53.5q2 26 2 52q0 69 -13.5 214.5t-13.5 156.5q0 7 137 7h140v-118q0 -123 8.5 -226.5t18.5 -110.5q6 -4 30 -4h24l3 94q3 76 3 270v176l20 3q16 3 88 7
l69 3l-4 -20q-2 -9 -10 -95q-36 -333 -81 -583l-12 -61h-162l-13 27q-30 61 -50 179q-9 58 -11 60q-1 1 -29 5q-25 4 -28 -4q-3 -12 -13 -79q-20 -137 -49 -171q-8 -10 -17.5 -12t-45.5 -2q-54 0 -78 7l-27 6l-11 34q-27 89 -55 283t-36 351l-4 68z" />
    <glyph glyph-name="X" unicode="X" horiz-adv-x="676" 
d="M140 639q11 1 25 2.5t25.5 2.5t14.5 1h18l75 -139q75 -139 77 -139q1 0 60.5 131t62.5 131q4 0 72 -66l67 -65l-53 -82q-75 -117 -93 -145l-40 -63l84 -173q81 -167 81 -176q0 -1 -7 -1q-23 0 -80.5 4.5t-58.5 6.5q-17 55 -41.5 126t-27.5 71q-1 0 -47 -97l-43 -96
l-52 -3q-42 -2 -96 -2h-39l-83 2l108 172q120 194 128 207l21 35l-103 174q-103 173 -103 175z" />
    <glyph glyph-name="Y" unicode="Y" horiz-adv-x="611" 
d="M51 745q3 3 21.5 5t45 3.5t51 2.5t47 1.5t25.5 0.5l26 1v-27q-2 -77 -41 -269q-28 -138 -28 -194q0 -49 18 -67.5t59 -19.5h4q36 0 83.5 11.5t61.5 23.5q9 7 9 44q0 6 -2 70q-6 227 -54 342q-13 30 -11 32l104 4l101 3l4 -30q4 -34 4 -103q0 -119 -7 -189
q-16 -139 -32 -195q-5 -18 -22.5 -29t-63.5 -26l-45 -15l2 -98l1 -98l-93 -1q-51 -1 -107 -1l-14 -1l1 70q2 73 5 98l3 29l-32 4q-71 8 -98 33q-15 13 -23 43.5t-13 93.5q-5 67 -5 165q0 268 15 283z" />
    <glyph glyph-name="Z" unicode="Z" horiz-adv-x="636" 
d="M43 784l-3 16h504l3 -32q0 -3 5 -142l3 -108l-162 -139q-161 -138 -161 -139h2q13 0 176.5 11t176.5 11h2q2 -1 8 -113t4 -114h-15q-68 0 -295 6t-229 8q-1 2 -1 5q0 25 10 110l12 113l146 162q93 102 168 184q18 18 18 25q0 1 -7 1q-9 0 -137 -8q-65 -5 -170 -12l-28 -1
l-13 69q-11 61 -17 87z" />
    <glyph glyph-name="a" unicode="a" horiz-adv-x="665" 
d="M491 153q-29 17 -114 17q-39 0 -53 -5q-16 -5 -22 -21t-6 -58v-13q1 -51 6 -69t22 -25q16 -6 62 -6q61 0 79 9q22 11 28.5 28.5t8.5 70.5q0 9 0.5 20.5t0.5 15.5q0 19 -2.5 25t-9.5 11zM206 547q43 5 102 5q84 0 150 -12t78 -31q11 -18 40 -142.5t42 -210.5
q12 -84 12 -149q0 -81 -18 -112q-10 -15 -27 -24q-14 -6 -77 -17.5t-82 -11.5h-4q-10 2 -15 20q-1 2 -1.5 5t-1 4l-1.5 3t-3 2.5t-5 1.5t-7.5 1h-10.5q-8 0 -22 -0.5t-39 -1.5t-48 -2q-46 -2 -62 -2q-118 0 -131 41q-15 47 -15 200q0 64 5 73q11 20 175 33q204 16 216 31
q2 2 2 9q0 28 -16 74t-34 51q-1 0 -2.5 0.5t-3.5 0.5q-33 0 -110 -22q-15 -4 -20 -7t-5 -11q0 -2 3.5 -14t3.5 -21q0 -11 -36 -11q-9 0 -41 2q-40 3 -99.5 15t-59.5 22q0 13 9 87l10 87l21 9q34 15 128 25z" />
    <glyph glyph-name="b" unicode="b" horiz-adv-x="679" 
d="M382 253q-40 8 -93 8q-77 0 -94 -16q-13 -12 -21.5 -54.5t-8.5 -91.5q0 -15 2 -41q2 -28 5 -35.5t11 -9.5h4q20 0 101 10.5t108 16.5q15 4 21 25.5t6 75.5v17q0 75 -6 83q-3 4 -35 12zM260 772q45 7 53 7q6 0 6 -3q0 -2 -13 -89q-38 -263 -38 -311q0 -10 3 -12t16 -2
q20 0 130 18q108 18 157 18q29 0 41 -6q16 -7 22.5 -32t6.5 -81q0 -80 -16.5 -187.5t-34.5 -144.5q-16 -34 -60.5 -47.5t-137.5 -13.5h-11q-131 1 -259 23l-70 12l4 15q7 33 7 284q0 125 -4 237q-10 236 -19 279l-3 16l90 6q93 8 130 14z" />
    <glyph glyph-name="c" unicode="c" horiz-adv-x="686" 
d="M255 532q25 3 61 3q143 0 230 -29q27 -9 37.5 -18.5t21.5 -34.5q10 -21 28 -98t18 -95t-15 -26t-51 -10h-9q-33 0 -83 7t-55 12q-1 1 -1 3q0 13 10 55q16 70 16 84q0 8 -4 8q-7 0 -57 28q-49 29 -70 29q-17 0 -26 -16q-15 -25 -28.5 -122.5t-16.5 -204.5q-1 -23 -1 -56
q0 -32 3.5 -43t14.5 -11q8 0 18 3q22 5 61 9q32 3 41.5 11.5t13.5 37.5q4 27 6 30t87.5 12t114.5 9q7 0 8 -1q3 -2 12.5 -74t9.5 -89q0 -11 -244 -45q-65 -9 -173 -9h-22q-46 0 -71.5 1t-47.5 9.5t-31 17t-15.5 33.5t-7.5 49.5t-1 72.5q1 99 13.5 215t27.5 148q33 75 177 95
z" />
    <glyph glyph-name="d" unicode="d" horiz-adv-x="659" 
d="M423 359q-14 8 -27 8q-52 0 -76 -133q-9 -44 -13 -122l-4 -67l15 -17q13 -16 62 -40t83 -25h14q14 0 19.5 3t12.5 13q12 17 23.5 64.5t13.5 88.5l2 47l-29 58q-50 99 -96 122zM392 751q224 28 227 28q5 0 6.5 -67t1.5 -323q0 -311 -3 -383t-19 -93q-9 -12 -32 -17
q-27 -5 -169 -5q-176 0 -215 6q-54 8 -68.5 14t-22.5 25q-17 39 -39 149t-22 157q0 90 77 138q42 26 125 53t123 27q27 0 27 5q0 9 -16 139l-16 130q0 10 5 12.5t30 4.5z" />
    <glyph glyph-name="e" unicode="e" horiz-adv-x="668" 
d="M347 319q-37 10 -141 10q-36 0 -50 -3q-22 -5 -28.5 -11.5t-6.5 -29.5q0 -16 1 -26q4 -76 26 -88q15 -8 64 -8q105 0 149 22q19 9 26 23.5t7 45.5q0 32 -9 44.5t-38 20.5zM224 491q41 4 99 4q141 0 204 -21q34 -12 45 -28q17 -26 37 -105t23 -134l1 -33l-25 -9
q-64 -21 -170 -36.5t-192 -16.5h-84v-19q0 -20 10 -42q7 -15 12.5 -19.5t31 -7.5t78.5 -5h12l89 -4q-1 9 -2 25.5t-2 24.5l28 4q24 3 115 7q28 2 60 2q27 0 27 -5q0 -6 -34 -112t-37 -109t-166 -5h-64q-167 0 -225 25q-17 7 -24 13.5t-13 19.5q-21 49 -21 186q2 238 42 331
q25 57 145 69z" />
    <glyph glyph-name="f" unicode="f" horiz-adv-x="488" 
d="M272 785q71 14 127 14l55 1v-237l-16 3q-9 2 -105 6l-87 4q0 8 -2 24.5t-2 24.5h-90l-4 -19q-3 -16 -3 -173v-154h270l-4 -31q-3 -27 -3 -59v-28h-148l-4 -27q-3 -21 -3 -66q0 -51 -3 -110l-3 -70h-98q-96 0 -97 1v21q-1 21 -2 60t-2.5 87.5t-3 114t-2.5 128.5
q-7 288 -7 362q0 50 5 54q39 28 232 69z" />
    <glyph glyph-name="g" unicode="g" horiz-adv-x="704" 
d="M457 761l3 20l79 -3q87 -4 103 -9l25 -8l-4 -38q-5 -51 -20.5 -133t-22.5 -93q-2 -2 -5 -2q-11 0 -68 19q-80 25 -91 28l-22 6v82h-41q-53 0 -74 -17t-29 -67q-4 -23 -4 -82q0 -92 8 -119q7 -20 25 -29q23 -12 59.5 -21t56.5 -9q14 0 14 5q0 4 -13 71q-12 61 -12 78
q0 15 9 15q12 0 80.5 -11t84.5 -15l20 -5l4 -48q11 -170 11 -270q0 -168 -27 -219q-8 -16 -63 -29.5t-215 -39.5q-119 -18 -178 -18h-66l-8 45q-19 101 -19 176q0 44 8 65q7 18 10 18t84 -18q139 -31 174 -31q6 0 8 1q10 3 10 -1q0 -1 -13.5 -24.5t-27.5 -52t-14 -41.5
q0 -6 55 -6q27 0 41 3q22 6 30 24q22 54 24 174l1 73l-83 3q-162 7 -209.5 17t-70.5 39q-46 58 -46 142q0 74 38 202q23 74 33.5 96t27.5 31q19 10 65 10q37 0 106 -8q53 -8 100 -10q4 0 10.5 -0.5t8.5 -0.5q17 0 21.5 6t8.5 29z" />
    <glyph glyph-name="h" unicode="h" horiz-adv-x="659" 
d="M105 793q74 6 140 6h34q38 0 38 -5l-1 -1v-2q-6 -18 -21.5 -142.5t-15.5 -148.5v-3h3q18 0 55 6q79 11 134 11q75 0 100 -17q40 -30 52 -357q2 -47 2 -125q0 -144 -15 -156q-17 -12 -68 -12q-11 0 -35 2q-58 4 -58 20q0 3 2 9q7 20 14 116.5t7 166.5q0 42 -3 54
q-6 20 -28.5 25t-111.5 6h-106l-9 -70q-8 -60 -12 -152l-4 -84l-23 -3q-20 -3 -41 -3q-16 0 -36 -8q-19 -7 -20 -6q-8 8 -17 305q-15 517 -19 545l-3 18z" />
    <glyph glyph-name="i" unicode="i" horiz-adv-x="350" 
d="M207 408q90 9 99 9q5 0 7 -0.5t2 -1v-2.5v-2q0 -9 -7 -76q-16 -152 -28 -388l-3 -67l-99 -2l-99 -1l-3 17q-3 13 -12.5 237t-9.5 227l-3 34l33 3q49 5 123 13zM74 738q7 51 13 51h1q6 0 95 -24l88 -24l2 -36q2 -40 14 -100q13 -64 11 -66q-1 -1 -114 -14q-25 -3 -57.5 -7
t-50.5 -6t-22 -3l-15 -3l14 90q9 56 21 142z" />
    <glyph glyph-name="j" unicode="j" horiz-adv-x="383" 
d="M324 534q4 3 9 6t8 5l3 2q1 0 0.5 -4.5t-2.5 -11.5q-9 -49 -24 -435q-5 -165 -9 -213l-4 -48q-13 -5 -41 -17t-41 -17l-91 -1h-92v82q0 83 2 83q3 0 62 -16q58 -15 79 -15q15 0 21 7q3 3 3 21q0 84 -59 409q-26 143 -26 148q0 3 0.5 4t3.5 1t7 -1t12 -4q33 -12 74 -12
q67 0 105 27zM174 789q0 11 77 11h76l3 -35q3 -30 11 -78q9 -43 7 -45q-2 -1 -100.5 -7.5t-108.5 -6.5h-1q0 2 18 76t18 85z" />
    <glyph glyph-name="k" unicode="k" horiz-adv-x="689" 
d="M71 796q16 1 141 3l106 1l-2 -11q-4 -20 -29 -249t-25 -250q0 -9 3 -12.5t13 -5.5q22 -4 25 -4q18 0 53 82q7 15 11 24q49 112 58 131q12 27 21 27t51.5 -17.5t63.5 -29.5q61 -36 80 -77l9 -21l-16 -16q-9 -9 -103 -81q-87 -67 -87 -70q0 -8 34 -49q54 -66 93.5 -131.5
t52.5 -111.5t13 -67q0 -4 -1 -4q-10 0 -92.5 11t-92.5 14q-16 4 -19 13.5t-21 102.5q-24 121 -40 159q-7 19 -23.5 24.5t-63.5 5.5q-84 0 -84 -26q0 -35 42 -187q24 -96 24 -99q0 -2 -42 -6t-85.5 -7t-44.5 -3q-4 -1 -10 -1q-5 0 -6 2.5t-3 16.5q-1 2 -1 4q-8 58 -16 391
q-9 451 -16 501l-3 21z" />
    <glyph glyph-name="l" unicode="l" horiz-adv-x="348" 
d="M279 765q28 12 30 12q1 0 0 -4t-4 -15q-15 -53 -26 -221q-3 -49 -8.5 -286.5t-6.5 -338.5v-24h-196l-2 22q-2 13 -15.5 403t-13.5 427q0 8 20 0q19 -9 68 -9h7q70 0 147 34z" />
    <glyph glyph-name="m" unicode="m" horiz-adv-x="964" 
d="M824 578q6 1 13.5 2t12.5 2l4 1h1q5 0 13.5 -8t13.5 -16q7 -14 18 -59.5t16 -80.5q14 -107 14 -358q0 -85 -4 -97q-10 -33 -71 -33q-37 0 -59 8l-20 6l3 25q7 49 7 148q0 121 -9 136q-5 7 -76 7q-105 0 -112 -16q-5 -11 -12 -89t-9 -141l-4 -80l-44 -4q-44 -4 -50 -8
q-8 -6 -54 -6q-67 0 -91 9l-26 9l9 24q8 21 18 77q7 50 16.5 174.5t9.5 168.5q0 13 -1 14q-2 2 -22 2q-29 0 -49 -2q-108 -8 -124 -21q-8 -6 -15.5 -115.5t-8.5 -220.5v-91l-34 -3q-6 -1 -49 -6l-14 -3v624l32 3q6 1 86.5 7t93.5 9h1q5 0 5 -16q0 -10 -2 -32t-2 -29t1 -8
q2 -2 24 17q27 21 47 30q30 13 82 25t91 14q11 1 28 1q22 0 30 -9.5t22 -47.5l14 -40l21 15q37 25 103 50t112 32z" />
    <glyph glyph-name="n" unicode="n" horiz-adv-x="690" 
d="M278 599q13 4 19 4t6 -6q0 -1 -0.5 -4t-0.5 -5q0 -3 -3 -46l-1 -29l63 -4q121 -7 211 -34q51 -16 65.5 -49.5t17.5 -138.5q1 -20 1 -53q0 -60 -9 -120q-17 -131 -29 -143q-12 -10 -137 -10q-48 0 -72 3l-23 4l-4 150q-6 176 -8 186l-3 35l-21 -1q-34 -2 -43.5 -6
t-12.5 -18q-13 -73 -15 -243q-2 -125 -6 -128q-6 -4 -43 -4q-45 0 -113 -5q-13 -1 -29 -2t-26.5 -2t-15.5 -1l-6 1q-3 3 32 175q56 289 62 402l4 65l62 12q57 10 78 15z" />
    <glyph glyph-name="o" unicode="o" horiz-adv-x="641" 
d="M321 449q-63 5 -84 5q-28 0 -37.5 -6t-13.5 -23q-6 -19 -6 -78q0 -62 7 -106q14 -80 33 -97q21 -19 89 -19q64 0 81 37q6 12 18.5 81.5t16.5 109.5q1 8 1 22q0 54 -21 64q-9 4 -84 10zM219 547q39 4 96 4q79 0 149.5 -8.5t91.5 -21.5q50 -30 50 -168q0 -81 -21 -170
q-36 -149 -100 -206.5t-192 -57.5q-65 0 -121.5 15.5t-70.5 37.5q-8 12 -21.5 67.5t-22.5 111.5q-20 125 -20 205q0 112 37 145q16 15 58.5 28t86.5 18z" />
    <glyph glyph-name="p" unicode="p" horiz-adv-x="683" 
d="M523 443q-25 15 -85 15q-62 0 -91 -16q-17 -9 -22.5 -24.5t-7.5 -60.5v-24q0 -113 27 -135q24 -21 72 -21q17 0 26 1q28 2 43.5 4t29.5 9t19.5 14t10 25t5 37t0.5 54q0 87 -3 98q-3 12 -24 24zM179 555l19 1h35q13 0 47 -0.5t54 -0.5q111 -2 155.5 -8t87.5 -25
q28 -13 39 -27t21 -50q13 -46 13 -144q0 -123 -18 -178q-7 -22 -21.5 -30t-59.5 -14q-42 -6 -96 -6q-178 0 -279 39h-2q-5 0 -5 -40q0 -4 2 -114l2 -158h-138v732l18 5q38 10 126 18z" />
    <glyph glyph-name="q" unicode="q" horiz-adv-x="724" 
d="M463 467q-11 8 -63 8h-27q-132 -2 -169 -15q-22 -8 -43.5 -69t-21.5 -114q0 -70 42 -92q26 -14 109 -14q60 0 60 10q0 5 -26 38q-29 38 -32 44q-3 5 -3 9q0 6 11.5 15.5t52.5 37.5l39 27l31 -47q33 -46 37 -46q2 0 11 27q18 63 18 108q0 55 -26 73zM294 594q35 3 82 3
q118 0 154 -11l28 -8l24 -53q24 -49 45 -109q20 -62 20 -108q0 -36 -10 -67q-8 -24 -27 -49t-34 -29q-4 -1 -5.5 -2t-1.5 -2.5t1.5 -3.5t5.5 -6q10 -11 41.5 -33t48.5 -30q19 -10 19 -13q0 -4 -49.5 -44t-76.5 -59l-25 -17l-50 53q-44 43 -50 45q-8 0 -19 -40
q-11 -41 -32.5 -54t-79.5 -13q-89 0 -176 30q-30 10 -38 15.5t-16 22.5q-23 47 -33 182q-3 50 -3 92q0 183 69 246q52 49 188 62z" />
    <glyph glyph-name="r" unicode="r" horiz-adv-x="578" 
d="M58 -28q0 7 -10.5 280.5t-10.5 281.5v29h25q17 0 91 10q61 9 77 9q9 0 12 -3t3 -10q0 -2 -0.5 -8.5t-0.5 -10.5l-2 -34h20q18 0 127.5 10t132.5 14l21 4l-3 -20q-5 -28 -22 -200l-3 -30l-21 3q-112 17 -199 17q-56 0 -65 -9q-7 -7 -16 -179l-9 -171h-147v17z" />
    <glyph glyph-name="s" unicode="s" horiz-adv-x="621" 
d="M182 574q11 6 38 7t134 2l154 1l16 -32q35 -68 35 -100v-12l-104 1h-46q-60 0 -81 -9q-25 -12 -25 -28q0 -9 7 -17q14 -14 78 -59q116 -83 155 -142q16 -24 28.5 -56.5t12.5 -49.5q0 -10 -13 -24t-48 -47l-59 -55l-201 2q-203 3 -213 8q-11 6 -11 20q0 10 1 17
q5 38 37 131.5t41 93.5q46 0 113 -27.5t81 -27.5q16 0 31 8.5t20 19.5q3 8 3 23q0 10 -1 15q-2 22 -13 31t-87 51q-104 58 -130 111q-13 25 -13 50q0 23 10 43q8 20 19 31t31 20z" />
    <glyph glyph-name="t" unicode="t" horiz-adv-x="523" 
d="M304 720q8 3 11 3q7 0 7 -9q0 -6 -1 -10q-3 -17 -7 -75l-3 -55l86 -3q84 -4 88 -9q3 -4 3 -36q0 -31 -4 -83l-3 -35h-90h-40q-52 0 -53 -1q-1 -3 -5 -225l-3 -222h-138v35q0 36 -5.5 195t-6.5 160l-93 12q-1 1 -5 120l-4 118l14 -3q5 -1 50 -6l35 -3l-3 22q-10 90 -10 95
q0 2 41.5 4.5t87 5.5t51.5 5z" />
    <glyph glyph-name="u" unicode="u" horiz-adv-x="708" 
d="M500 636q48 15 89 15q25 0 35 -6q26 -14 43 -180q7 -63 7 -128q0 -102 -20 -171.5t-57 -92.5q-36 -22 -119 -36.5t-165 -14.5q-55 0 -91 7q-60 10 -102.5 34.5t-54.5 55.5q-28 72 -28 229q0 64 4 124q8 118 10 126q3 9 19 14t92 17q84 13 99 13q11 0 12 -3q5 -8 5 -29
q0 -46 -26 -176q-26 -128 -29 -160q-1 -7 -1 -19q0 -49 25 -62q22 -11 168 -11q30 0 50 2q33 5 44 15q9 7 11 13t2 25v20q-1 45 -17.5 94.5t-61.5 142.5q-41 83 -41 97q0 2 1 2q26 21 97 43z" />
    <glyph glyph-name="v" unicode="v" horiz-adv-x="701" 
d="M40 604q0 13 196 41h5q6 0 13 -18t39 -113q40 -119 59 -158q15 -31 21.5 -39t18.5 -10q11 -2 16 -0.5t10 9.5q14 18 40.5 109.5t34.5 146.5q3 20 6 24.5t19 8.5q13 4 41 4q56 0 84 -13q14 -7 17 -12t5 -20v-5q0 -76 -106 -323q-27 -63 -60 -129.5t-44 -80.5l-9 -11l-65 9
q-2 0 -103 14l-40 5l-17 35q-20 38 -46 111q-22 60 -78.5 233t-56.5 182z" />
    <glyph glyph-name="w" unicode="w" horiz-adv-x="967" 
d="M39 594q1 0 71 10l70 10q22 2 40 -221q19 -232 28 -248q8 -14 47 -14q15 0 31 3l28 4l6 28q27 124 27 261q0 107 -18 141l-7 14l37 4q25 2 130 6.5t123 4.5h2q1 -1 -6 -37q-11 -60 -11 -100q0 -52 19 -148l11 -58l18 -3q3 -1 16 -1q12 0 36 2q27 4 32.5 7t13.5 20
q19 37 43.5 143.5t26.5 152.5l1 35l39 -2l38 -1l2 -137l1 -138l-34 -81q-73 -175 -111 -232l-17 -26l-42 -4q-20 -2 -36 -2q-38 0 -77.5 4.5t-44.5 9.5q-3 3 -11.5 62t-10.5 62q-2 5 -20 5q-23 0 -28 -7t-22 -57q-2 -6 -5 -17q-13 -39 -25 -47q-15 -9 -82 -9h-52
q-90 0 -111 1.5t-29 9.5q-21 19 -53 104.5t-63 204.5l-23 88v96q0 95 2 97z" />
    <glyph glyph-name="x" unicode="x" horiz-adv-x="834" 
d="M466 207q-3 0 -85 -113.5t-92 -113.5q-36 1 -142 8t-106 9q0 6 141 176q143 172 145 178q5 12 -150 164l-85 83l29 8q29 8 80 18.5t62 10.5q11 -2 72 -70q62 -69 68 -69q8 0 67 77q56 73 65 73h1q36 -27 102 -80t66 -54q0 -3 -91 -50q-91 -45 -96 -54q-1 -1 -1 -5
q0 -11 24 -39q25 -31 88.5 -120t116 -166.5t50.5 -79.5q-1 -1 -113 -9.5t-122 -8.5q-1 0 -47 113.5t-47 113.5z" />
    <glyph glyph-name="y" unicode="y" horiz-adv-x="740" 
d="M162 543l81 30q2 1 6 -13q1 -3 3 -11q1 -5 2 -7q11 -37 52 -113.5t74 -119.5l19 -25l10 12q21 24 97 197q24 57 29 64q0 1 3 1q9 0 82 -48l81 -54l-14 -12q-74 -69 -374 -559l-28 -46l-107 -2h-45q-61 0 -61 4q0 6 77 114q78 107 78 113q0 5 -13 25q-26 41 -75 149
t-78 188q-20 55 -20 58q0 9 121 55z" />
    <glyph glyph-name="z" unicode="z" horiz-adv-x="741" 
d="M428 603q20 4 48 10t40.5 8.5t14.5 2.5h1q5 0 9.5 -14.5t19.5 -74.5l13 -51l-68 -129q-94 -180 -94 -200q0 -9 27 -9q20 0 36 1q112 5 206 63q21 12 21 6q0 -2 -61 -119l-59 -111l-34 -1q-8 0 -39 -1t-85.5 -1.5t-94.5 -1.5q-125 -3 -178 -3h-8q-2 0 -20 129l-19 129
l14 10q179 132 213 161l18 15l-14 9q-37 23 -135 23q-48 0 -104 -6q-40 -5 -52 -5h-3q-2 2 7 29q10 29 24 87q15 61 22 61q2 0 122 -19l114 -18z" />
    <glyph glyph-name="nbsp" unicode="&#xa0;" 
 />
  </font>
</defs>
</svg>
